<svg width="277" height="42" viewBox="0 0 277 42" fill="none" xmlns="http://www.w3.org/2000/svg">
<path d="M41.108 34.2353C41.108 38.0338 38.0325 41.1093 34.2328 41.1093H6.87649C3.07801 41.1093 0 38.0338 0 34.2353V6.87649C0 3.07801 3.07801 0 6.87649 0H34.2328C38.0313 0 41.108 3.07801 41.108 6.87649V34.2353Z" fill="#E31019"/>
<path d="M32.8824 30.3073L32.7038 30.5563C33.7198 31.8564 34.7345 33.2257 34.3158 33.9109C33.8971 34.5949 29.4812 36.5828 27.2092 36.5828C24.1035 36.5828 21.0192 35.5216 20.8784 31.61C20.6986 26.7038 22.5482 23.7213 22.5482 23.7213C24.1035 22.9128 31.3245 18.5372 30.9712 16.0753C30.2558 11.0396 23.9602 16.7279 23.207 15.8276C22.8386 15.3901 23.4648 14.1453 24.2846 12.8904C24.4015 13.0501 24.7234 13.6801 24.8114 13.8071C24.8919 13.924 24.9183 13.9454 24.956 13.8498C24.9988 13.7492 25.1848 13.2148 25.2465 13.0778C25.2829 12.9885 25.3345 12.9684 25.3885 13.03C25.4891 13.152 25.7142 13.4651 25.8223 13.5556C25.9003 13.6222 25.9267 13.6323 25.9267 13.5304C25.9267 13.4324 25.9267 12.7748 25.9166 12.6465C25.9103 12.5057 25.9606 12.424 26.0449 12.4843C26.1228 12.5421 26.5818 12.9156 26.5818 12.9156C26.6384 12.942 26.6585 12.9332 26.6685 12.8188C26.6811 12.7056 26.7741 11.5111 26.7955 11.2345C26.8081 11.0962 26.793 10.9893 26.9225 11.1151C27.0495 11.2433 27.384 11.8041 27.4531 11.9411C27.4732 11.9839 27.5172 12.0078 27.5436 11.9902C27.5789 11.9688 27.5348 11.8141 27.5286 11.6922C27.5286 11.6922 27.2419 9.76214 27.4783 9.43774C27.7159 9.11334 31.356 5.41796 31.4729 5.20547C31.5861 4.99172 31.1988 4.71385 30.9184 4.53404C30.6305 4.34796 30.589 3.76454 30.589 3.76454C30.1916 3.38608 29.7968 2.69579 29.3329 3.43888C29.0399 3.91039 26.8094 6.54456 25.4766 7.14684C24.702 7.49638 23.6169 8.16907 22.6827 8.75374C21.4442 8.57268 17.7149 8.02572 17.1881 7.92639C16.5493 7.80443 16.5531 8.3451 17.0975 8.43814C17.5062 8.51484 20.1957 9.15358 21.5222 9.4742C21.3436 9.58108 21.1852 9.67538 21.067 9.73825C20.2547 10.1683 10.1368 13.5594 9.30694 13.7505C8.47331 13.9441 8.52235 14.4508 9.40501 14.3527C10.2927 14.2534 20.0108 11.3225 20.9639 11.0346C21.1626 10.9717 21.1072 11.061 20.9916 11.1213C20.9916 11.1213 19.9806 11.9286 19.8977 11.9751C19.821 12.0279 19.8159 12.0958 19.9304 12.0631C20.0473 12.0329 20.6873 11.8355 20.7791 11.8129C20.8734 11.7865 20.8809 11.8481 20.8268 11.9059C20.7816 11.9499 20.1554 12.6666 20.0812 12.7358C20.0196 12.8024 20.0045 12.8603 20.1378 12.8288C20.2447 12.8049 21.3776 12.1737 21.7233 12.1008C20.9061 13.6738 19.7065 16.7857 21.1173 18.2493C22.8487 20.0523 25.8953 15.8251 27.2092 17.3767C28.5206 18.932 22.1332 20.7967 21.4153 21.917C20.6999 23.0335 18.9345 28.3848 19.5041 32.2286C19.743 33.843 20.1039 38.5078 27.1463 38.5078C34.1963 38.5078 37.5987 35.0903 37.5987 33.7814C37.6 32.4801 33.3011 31.2416 32.8824 30.3073Z" fill="#221814"/>
<path d="M11.7827 14.4962C9.12969 16.1471 9.39248 19.332 10.7328 19.2817C11.4633 19.2553 12.5862 18.0055 12.4491 16.9166C12.3183 15.8328 12.385 14.6798 12.9131 14.2976L12.3183 14.2322L11.7827 14.4962Z" fill="#221814"/>
<path d="M15.053 19.9317C15.2228 19.9041 15.3925 19.8789 15.5572 19.8588C19.6487 19.3471 18.9886 18.3865 18.4605 18.0671C18.0707 17.8307 14.525 18.8793 11.9738 19.7595C13.2789 18.3865 17.9349 15.9837 18.4391 15.7925C18.9848 15.5788 18.6591 14.1806 17.8934 13.8637C17.1315 13.5456 14.0258 14.7628 12.9394 16.3961L12.9658 16.6601C12.9658 16.6601 15.2517 15.7334 15.3058 16.1584C15.3586 16.5633 13.2424 17.6836 11.5538 19.9041C10.8258 20.1593 10.2072 20.3907 9.80986 20.5629C8.02567 21.3262 4.25989 22.3534 4.25989 22.3534C4.25989 22.3534 5.64801 23.8874 6.11197 23.4385C6.49295 23.0726 9.8413 21.2457 13.2915 20.3178C11.0119 22.107 8.37648 27.535 7.76414 31.3662C7.30144 34.2505 5.91583 35.3922 6.11323 35.8361C6.31064 36.2837 8.49215 38.9681 9.01773 38.396C9.54959 37.8202 9.28177 35.9643 9.08562 34.497C8.99887 33.823 8.99258 31.5774 9.64389 28.8967C17.5338 18.35 16.4839 28.2944 16.4839 29.6989C16.4839 32.6449 15.4931 35.4488 14.2383 36.2208C14.0484 36.339 13.7793 36.3906 13.4839 36.4094C13.1431 36.3931 11.2709 36.129 11.2709 36.6395C11.2709 37.1651 11.9587 36.7653 12.6238 37.5222C13.1997 38.1785 13.1645 38.2464 13.2349 38.5419C13.2915 38.7846 14.0396 38.6928 14.5275 38.4275C15.6641 37.9635 17.9978 35.7091 17.9978 30.6621C17.9978 24.8405 17.6671 22.7332 15.82 22.7332C14.3376 22.7332 11.628 24.9561 10.4411 26.3568C11.3325 24.076 12.7722 21.7348 15.053 19.9317Z" fill="#221814"/>
<path d="M10.2701 29.8322C10.3241 30.32 10.9365 30.4181 11.6079 30.2521C12.2793 30.0887 13.7504 29.3141 13.416 29.0212C13.0803 28.7332 12.4126 28.2781 11.6733 28.4403C10.9377 28.5999 10.2386 29.5078 10.2701 29.8322Z" fill="#221814"/>
<path d="M9.53453 32.705C9.75583 32.3215 15.0204 30.3361 14.9902 30.7234C14.9575 31.1119 12.0103 33.4141 11.5073 33.6405C11.0044 33.8668 9.09697 33.4469 9.53453 32.705Z" fill="#221814"/>
<path d="M23.2058 24.4618C23.0888 25.0742 25.1786 25.7695 26.1316 25.5205C27.086 25.2728 28.5206 24.0896 28.283 23.1617C28.0441 22.2275 26.9062 23.0963 26.1945 23.3453C25.4778 23.598 23.3265 23.842 23.2058 24.4618Z" fill="#221814"/>
<path d="M22.2551 28.0051C22.7895 28.0051 25.2954 26.9514 26.2523 26.9514C27.2104 26.9514 27.3889 27.1375 27.3298 27.5726C27.2682 28.0051 26.1969 29.1832 25.3558 29.2486C24.5234 29.3127 21.595 29.1832 21.5359 28.6891C21.4768 28.1937 22.2551 28.0051 22.2551 28.0051Z" fill="#221814"/>
<path d="M22.3119 30.9901C23.0864 30.9901 26.9692 29.8723 27.2672 29.7453C27.5677 29.6234 27.6859 29.6875 27.628 30.1225C27.5677 30.5563 25.0555 32.543 24.1602 32.7316C23.265 32.9164 21.9548 31.737 21.8316 31.5521C21.7172 31.3661 21.7172 30.9901 22.3119 30.9901Z" fill="#221814"/>
<path d="M14.5677 9.10086C15.4353 8.81167 17.569 9.59123 17.5313 10.1709C17.4974 10.7467 17.0711 11.0158 16.5883 11.085C16.1055 11.1579 14.9814 10.6612 14.5589 9.94832C14.1352 9.23037 14.4432 9.14361 14.5677 9.10086Z" fill="#221814"/>
<path d="M25.5482 8.88694C25.5772 9.17362 25.2867 9.43012 24.907 9.45653C24.5273 9.48419 24.2003 9.27295 24.1714 8.98628C24.1425 8.6996 24.4317 8.44058 24.8089 8.41292C25.1886 8.38777 25.5218 8.59901 25.5482 8.88694Z" fill="#CF1233"/>
<path d="M29.0965 2.98636C27.9862 1.8824 27.0784 1.87359 26.0939 2.09866C25.1056 2.32121 22.1559 3.64521 19.5355 6.42523" stroke="#221814" stroke-width="0.484" stroke-miterlimit="10" stroke-linecap="round"/>
<path d="M81.7031 2.07861L79.4247 11.3655H78.7546C78.6012 9.91698 78.3359 8.74764 77.9687 7.87629C77.3966 6.60887 76.646 5.6319 75.7067 4.94413C74.7713 4.25007 73.7603 3.91184 72.6715 3.91184C71.6253 3.91184 70.6962 4.31797 69.9103 5.11639C69.122 5.90978 68.7297 6.82263 68.7297 7.82977C68.7297 8.83189 69.0012 9.8101 69.5495 10.7758C70.0939 11.7439 71.3915 13.1874 73.4234 15.1287C75.0416 16.6765 76.1418 18.0093 76.7013 19.1259C77.2571 20.2474 77.5387 21.4545 77.5387 22.7609C77.5387 24.2332 77.1477 25.5837 76.3681 26.8297C75.5848 28.0682 74.4506 29.025 72.9695 29.7078C71.472 30.3893 69.7858 30.73 67.8985 30.73C66.738 30.73 65.287 30.5552 63.528 30.2107C61.7664 29.8738 60.6008 29.7003 60.0199 29.7003C59.5623 29.7003 59.1511 29.7681 58.789 29.909C58.4269 30.051 57.9755 30.3252 57.4411 30.73H56.6477L59.0933 20.2776H59.8577C60.0325 22.1146 60.4047 23.6712 60.9655 24.9587C61.5388 26.2463 62.3486 27.2484 63.3909 27.9714C64.4484 28.6868 65.6504 29.0515 66.992 29.0515C68.3223 29.0515 69.4375 28.6038 70.3378 27.7262C71.228 26.8423 71.6794 25.8112 71.6794 24.6293C71.6794 23.6146 71.4279 22.6477 70.92 21.716C70.4208 20.7856 69.2628 19.4352 67.4622 17.6548C65.663 15.8731 64.4282 14.2888 63.7379 12.8856C63.2388 11.8458 62.9886 10.7481 62.9886 9.57373C62.9886 7.53681 63.7845 5.78279 65.3901 4.30288C66.992 2.81417 69.0918 2.07987 71.6782 2.07987C72.85 2.07987 74.389 2.33763 76.3052 2.86321C77.4243 3.17252 78.2076 3.33471 78.6678 3.33471C79.0588 3.33471 79.4122 3.24293 79.7164 3.07696C80.0308 2.90219 80.3979 2.57527 80.8091 2.07987L81.7031 2.07861Z" fill="white"/>
<path d="M87.0418 22.5205C86.9135 23.4019 86.8544 24.1186 86.8544 24.6856C86.8544 25.6978 87.1486 26.5013 87.7358 27.1061C88.3192 27.7171 89.1026 28.0164 90.0883 28.0164C91.0326 28.0164 91.9794 27.7901 92.9325 27.3299C93.8717 26.8722 94.9782 26.0725 96.2293 24.9308L96.8403 25.4702C95.2875 27.3462 93.7799 28.679 92.3126 29.4699C90.8478 30.2733 89.2183 30.6694 87.4416 30.6694C85.1909 30.6694 83.6356 30.1275 82.7705 29.0512C81.9067 27.9736 81.4805 26.7238 81.4805 25.3118C81.4805 23.0963 82.1217 20.896 83.4093 18.6843C84.6918 16.4751 86.4483 14.706 88.66 13.3682C90.8817 12.0354 93.1035 11.3665 95.3428 11.3665C96.4745 11.3665 97.3257 11.6406 97.9091 12.1737C98.4862 12.7156 98.7805 13.3971 98.7805 14.2131C98.7805 15.1989 98.4913 16.1595 97.9292 17.0862C97.1484 18.3523 96.1626 19.3695 94.9757 20.1453C93.7963 20.9211 92.4647 21.5171 90.9949 21.917C90.0129 22.1835 88.6927 22.3834 87.0418 22.5205ZM87.2191 21.4668C88.4047 21.2971 89.3214 21.0531 89.9764 20.7539C90.6315 20.4496 91.2715 19.9655 91.8964 19.2979C92.5264 18.6315 93.0645 17.789 93.5197 16.7656C93.9773 15.7534 94.2062 14.8003 94.2062 13.9164C94.2062 13.5329 94.1056 13.2399 93.8969 13.0287C93.6831 12.8074 93.4266 12.7005 93.0985 12.7005C92.4497 12.7005 91.7217 13.1557 90.9157 14.061C89.4295 15.7018 88.2023 18.17 87.2191 21.4668Z" fill="white"/>
<path d="M112.418 2.07861L106.839 21.1892L111.469 16.9041L113.009 15.5298C113.444 15.0722 113.758 14.6786 113.934 14.3542C114.034 14.153 114.091 13.9682 114.091 13.7896C114.091 13.508 113.959 13.2716 113.693 13.0868C113.42 12.8994 112.765 12.7687 111.724 12.6983L111.949 11.9388H120.173L119.969 12.6983C119.013 12.9246 118.215 13.1899 117.607 13.4866C117.139 13.7217 116.565 14.0977 115.872 14.6208C114.847 15.4167 114.116 16.0277 113.673 16.4603L112.786 17.2901L114.018 22.8615C114.481 25.0153 114.832 26.2664 115.06 26.5946C115.21 26.8033 115.385 26.9077 115.588 26.9077C116.059 26.9077 116.617 26.3507 117.266 25.2479C117.357 25.1046 117.487 24.8908 117.648 24.6281L118.398 25.0895C117.386 26.973 116.249 28.4064 114.982 29.3897C114.139 30.0523 113.363 30.3817 112.682 30.3817C111.993 30.3817 111.417 30.134 110.962 29.6424C110.502 29.1546 110.051 27.862 109.591 25.7735L108.578 21.1892L106.356 23.1695L104.334 30.1013H99.1829L105.887 7.28533C106.171 6.31591 106.312 5.66208 106.312 5.32637C106.312 5.01957 106.249 4.76182 106.112 4.56693C105.974 4.36952 105.792 4.22618 105.555 4.13188C105.324 4.03884 104.852 3.99483 104.153 3.99483L104.336 3.24167L111.202 2.07861H112.418Z" fill="white"/>
<path d="M130.182 11.3642L126.032 25.7371C125.8 26.5568 125.687 27.095 125.687 27.3477C125.687 27.4986 125.755 27.6407 125.869 27.7664C125.995 27.8922 126.124 27.9525 126.258 27.9525C126.489 27.9525 126.715 27.8519 126.947 27.6545C127.553 27.1528 128.282 26.2551 129.121 24.9462L129.818 25.3485C127.781 28.8918 125.619 30.6646 123.327 30.6646C122.455 30.6646 121.76 30.4182 121.234 29.9291C120.72 29.4312 120.46 28.8176 120.46 28.0581C120.46 27.5565 120.574 26.9278 120.802 26.1583L123.607 16.4955C123.882 15.5738 124.012 14.8735 124.012 14.3982C124.012 14.1015 123.89 13.8412 123.632 13.6124C123.377 13.3797 123.026 13.2691 122.576 13.2691C122.377 13.2691 122.138 13.2716 121.856 13.2854L122.112 12.4782L128.968 11.3642H130.182ZM128.921 2.07861C129.761 2.07861 130.461 2.36027 131.033 2.94368C131.605 3.52332 131.896 4.22367 131.896 5.04346C131.896 5.86829 131.606 6.56864 131.022 7.14325C130.452 7.72289 129.749 8.01711 128.922 8.01711C128.112 8.01711 127.423 7.72289 126.843 7.14325C126.27 6.56864 125.977 5.86829 125.977 5.04346C125.977 4.22367 126.264 3.52332 126.831 2.94368C127.409 2.35901 128.101 2.07861 128.921 2.07861Z" fill="white"/>
<path d="M140.931 11.3665L137.877 22.7229C140.381 17.1868 142.265 13.7705 143.536 12.5031C144.27 11.7449 145.064 11.3665 145.876 11.3665C146.435 11.3665 146.898 11.5777 147.249 11.9775C147.6 12.3912 147.777 12.9746 147.777 13.7315C147.777 15.0455 147.455 16.1356 146.822 17.0233C146.427 17.5954 145.969 17.8771 145.471 17.8771C144.935 17.8771 144.536 17.6243 144.258 17.1264C143.985 16.6285 143.804 16.333 143.688 16.2475C143.59 16.1595 143.472 16.1155 143.351 16.1155C143.214 16.1155 143.068 16.1595 142.929 16.2387C142.632 16.4022 142.243 16.7945 141.764 17.4181C141.288 18.0506 140.693 19.0929 139.999 20.5628C139.296 22.0314 138.749 23.2711 138.357 24.2896C137.963 25.3068 137.427 27.2456 136.722 30.0998H131.831L135.163 16.7027C135.411 15.7081 135.528 15.0505 135.528 14.7223C135.528 14.359 135.465 14.0748 135.336 13.8686C135.207 13.6737 135.034 13.5279 134.81 13.4336C134.591 13.3355 134.126 13.2864 133.431 13.2864L133.61 12.703L139.714 11.3677L140.931 11.3665Z" fill="white"/>
<path d="M148.28 13.1859L154.503 11.3652C155.006 11.9889 155.355 12.5723 155.556 13.1293C155.915 14.0836 156.175 15.4089 156.322 17.0887C156.603 20.3981 156.804 23.9388 156.912 27.6945C158.349 25.7922 159.999 23.2837 161.861 20.1592C162.435 19.2174 162.701 18.3247 162.701 17.4923C162.701 16.9617 162.379 16.4651 161.726 16.0011C161.075 15.5221 160.663 15.1524 160.503 14.8946C160.343 14.6293 160.263 14.2936 160.263 13.8699C160.263 13.1997 160.505 12.6138 161.002 12.1121C161.491 11.6205 162.095 11.3652 162.79 11.3652C163.532 11.3652 164.176 11.6519 164.72 12.214C165.268 12.781 165.54 13.4512 165.54 14.2169C165.54 15.1172 165.287 16.1696 164.779 17.3603C164.269 18.5548 163.094 20.5993 161.231 23.4899C158.851 27.1954 156.508 30.4004 154.222 33.1087C152.759 34.8338 151.568 36.0824 150.669 36.838C149.765 37.5975 148.83 38.196 147.858 38.6436C147.278 38.8988 146.706 39.0321 146.136 39.0321C145.377 39.0321 144.714 38.758 144.174 38.2199C143.628 37.6754 143.354 37.0455 143.354 36.2999C143.354 35.5606 143.594 34.9344 144.098 34.4189C144.58 33.9097 145.157 33.6569 145.817 33.6569C146.634 33.6569 147.396 34.0869 148.081 34.9558C148.538 35.5329 148.916 35.8208 149.216 35.8208C149.522 35.8208 149.819 35.7303 150.117 35.5555C150.529 35.3342 151.094 34.8426 151.815 34.0618C151.895 32.3757 151.947 31.1057 151.947 30.2394C151.947 29.0839 151.887 27.4494 151.772 25.3496L151.437 17.6533C151.317 16.2388 151.01 15.2203 150.528 14.6017C150.147 14.1415 149.654 13.9152 149.047 13.9152C148.821 13.9152 148.563 13.9328 148.281 13.9793V13.1859H148.28Z" fill="white"/>
<path d="M176.588 11.3665L172.672 25.1069C172.483 25.7418 172.382 26.1794 172.382 26.4208C172.382 26.5365 172.431 26.6345 172.532 26.7087C172.638 26.8143 172.766 26.8646 172.908 26.8646C173.534 26.8646 174.356 26.3102 175.398 25.2125C176.879 23.6131 178.433 21.3021 180.064 18.297L181.903 12.1096L187.012 11.9398L183.134 25.2728C182.815 26.4007 182.653 27.0495 182.653 27.2079C182.653 27.3173 182.702 27.4242 182.8 27.5424C182.905 27.6543 183.003 27.7196 183.117 27.7196C183.31 27.7196 183.482 27.6341 183.66 27.4745C184.149 27.0822 184.786 26.2963 185.582 25.1094L186.27 25.5935C184.399 28.972 182.338 30.6707 180.086 30.6707C179.249 30.6707 178.593 30.4594 178.115 30.0294C177.636 29.6032 177.403 29.0524 177.403 28.3571C177.403 27.6341 177.565 26.7125 177.9 25.5935L178.899 22.1797C177.144 24.7271 175.872 26.4371 175.086 27.3299C173.86 28.674 172.841 29.5554 172.017 30.0017C171.189 30.4469 170.401 30.6707 169.641 30.6707C168.93 30.6707 168.315 30.4016 167.789 29.876C167.269 29.353 167.019 28.6853 167.019 27.8781C167.019 27.1853 167.183 26.2699 167.522 25.1094L169.802 17.0258C170.181 15.7081 170.362 14.8141 170.362 14.359C170.362 14.1553 170.315 13.978 170.21 13.8271C170.097 13.6712 169.921 13.5492 169.667 13.4612C169.426 13.3757 168.961 13.3229 168.288 13.3229L168.49 12.5622L175.379 11.3702H176.588V11.3665Z" fill="white"/>
<path d="M202.802 12.9645C202.905 12.9645 203.021 13.0538 203.165 13.2411C204.798 12.5031 206.014 12.1321 206.809 12.1321C207.192 12.1321 207.526 12.2126 207.811 12.366C208.094 12.5232 208.239 12.708 208.239 12.9218C208.239 13.0613 208.167 13.3832 208.025 13.8799C207.966 14.0936 207.904 14.3426 207.834 14.6267C207.759 14.9511 207.689 15.302 207.62 15.6716C207.718 15.5572 207.826 15.444 207.939 15.3309C208.109 15.1574 208.215 15.0429 208.259 14.9901L208.323 14.9046C208.335 14.9348 208.345 14.9763 208.345 15.0329C208.345 15.2315 208.191 15.5446 207.874 15.9696L206.916 17.2697C206.687 17.5841 206.413 17.8607 206.086 18.0996L205.553 18.5497C204.927 19.0602 204.502 19.3154 204.273 19.3154C204.229 19.3154 204.096 19.2651 203.868 19.1671L203.804 20.2937L203.676 24.0921L203.698 28.0352C203.698 28.4464 203.627 28.7494 203.484 28.9518C203.456 28.9669 203.428 28.9719 203.399 28.9719L203.379 28.9933H203.356C203.199 28.9933 202.959 28.7519 202.629 28.2691C202.279 27.7184 202.099 27.184 202.099 26.6747C202.099 26.4899 202.166 26.0876 202.287 25.4765C202.373 24.9673 202.44 24.277 202.481 23.4081L202.612 19.1884L202.653 17.9965L202.715 12.9872C202.745 12.9708 202.772 12.9645 202.802 12.9645ZM204.742 14.6255C205.196 14.3677 205.474 14.2206 205.574 14.1804C205.657 14.1515 205.814 14.1351 206.043 14.1351H206.063V14.1552H206.086H206.109H206.173L206.15 13.1582C206.065 13.1418 205.964 13.133 205.851 13.133H205.831H205.808H205.785H205.765H205.74L205.723 13.1582H205.697H205.677H205.655L204.908 13.4976C204.738 13.5844 204.419 13.6246 203.95 13.6246H203.503C203.658 13.8811 203.779 14.1024 203.864 14.2873C203.923 14.4004 204.006 14.5928 204.122 14.8606V14.8845C204.435 14.7676 204.644 14.6821 204.742 14.6255ZM204.827 15.6263C204.768 15.6263 204.712 15.6352 204.655 15.6502C204.539 15.6653 204.466 15.6716 204.421 15.6716H204.399H204.378H204.332H204.314C204.297 15.6578 204.285 15.6502 204.27 15.6502H204.226H204.206H204.162H204.142H204.122L203.991 17.3992C204.348 16.9403 204.626 16.3518 204.827 15.6263ZM205.868 16.9918L206.085 15.351C205.274 16.3443 204.66 17.1691 204.253 17.8217C204.907 17.5539 205.443 17.2747 205.868 16.9918ZM205.144 27.2016C205.672 26.9187 206.085 26.5993 206.381 26.2422C206.693 25.8726 207.121 25.1898 207.661 24.1952C207.05 24.4945 206.608 24.6416 206.337 24.6416C206.013 24.6416 205.68 24.3071 205.338 23.6382C205.436 23.6558 205.544 23.6621 205.657 23.6621C206.438 23.6621 207.29 23.3151 208.213 22.6185C208.272 22.5619 208.366 22.4903 208.491 22.406L208.427 22.0225C207.873 21.9069 207.461 21.629 207.192 21.1889L207.257 21.1034C208.491 20.6231 209.423 19.7115 210.052 18.3774C209.609 18.5484 209.185 18.9093 208.772 19.4625C208.386 19.9894 208.074 20.2522 207.834 20.2522C207.677 20.2522 207.519 20.139 207.365 19.9114C207.22 19.6989 207.151 19.4688 207.151 19.2274C207.151 18.7723 207.239 18.4051 207.426 18.1197C207.468 18.0493 207.512 18.0141 207.555 18.0141C207.614 18.0141 207.648 18.0342 207.663 18.0769L207.812 18.4189C207.886 18.5585 208.026 18.6314 208.24 18.6314C208.593 18.6314 208.977 18.5095 209.389 18.2681C210.098 17.8707 210.656 17.6708 211.051 17.6708C211.235 17.6708 211.412 17.7349 211.584 17.8644C211.84 18.0329 211.968 18.1838 211.968 18.3121C211.968 18.3674 211.906 18.4743 211.774 18.6302L211.499 18.9495C211.244 19.2765 210.79 19.7253 210.136 20.2899C210.391 20.2635 210.568 20.2497 210.667 20.2497C211.207 20.2497 211.479 20.4005 211.479 20.696C211.479 20.867 211.022 21.2455 210.113 21.8264H210.091V21.8477H210.068V21.8691H210.05L210.03 21.8905H210.005V21.9106H209.982L209.96 21.9358C210.048 22.0489 210.094 22.1835 210.11 22.3394C210.947 22.0841 211.547 21.9559 211.902 21.9559C212.242 21.9559 212.544 22.0414 212.796 22.2111C213.037 22.3683 213.157 22.5594 213.157 22.787C213.157 22.9442 213.037 23.0209 212.796 23.0209L211.286 23.1051C211.171 23.1215 211.006 23.1491 210.792 23.1906C210.537 23.2635 210.195 23.3541 209.769 23.4697C209.64 23.7954 209.498 24.106 209.346 24.4065C210.508 24.4492 211.416 24.7133 212.072 25.1936C212.796 25.7355 213.157 26.3415 213.157 27.0079C213.157 27.4493 212.98 27.6655 212.624 27.6655C212.428 27.6655 212.233 27.6102 212.047 27.4958L211.153 26.9199C211.016 26.8206 210.656 26.715 210.087 26.6006L210.064 26.5138L210.108 26.4736L211.088 26.3881C210.42 25.7066 209.745 25.2011 209.065 24.8767C208.539 25.7858 207.991 26.4082 207.421 26.7515C206.867 27.0922 206.107 27.277 205.14 27.3022V27.2016H205.144ZM212.286 12.2591H212.311H212.331L214.31 11.6833C214.74 11.5538 215.194 11.4934 215.678 11.4934C216.206 11.4934 216.68 11.6192 217.105 11.8782C217.518 12.1171 217.724 12.4025 217.724 12.7294C217.724 12.7709 217.66 13.177 217.53 13.9453C217.518 14.0295 217.496 14.164 217.469 14.3501C217.425 14.5362 217.397 14.6708 217.383 14.7563V14.7764V14.7978V14.8392C217.368 14.8971 217.363 14.9449 217.363 14.9901C217.363 15.0882 217.353 15.1888 217.341 15.2869C217.325 15.4139 217.315 15.5434 217.315 15.6716L217.168 18.6541V19.0388V19.9994C217.183 20.2811 217.2 20.5665 217.21 20.8507C217.21 21.1348 217.217 21.4152 217.232 21.683C217.261 22.323 217.286 22.8926 217.315 23.388C217.33 23.5729 217.341 23.7489 217.341 23.9211C217.382 24.4593 217.405 24.8088 217.405 24.966C217.431 25.181 217.461 25.4061 217.488 25.6488C217.559 26.2561 217.622 26.8319 217.681 27.3751C217.723 27.9283 217.743 28.3483 217.743 28.6312C217.743 29.5654 217.509 30.0382 217.04 30.0382C216.731 30.0382 216.18 29.6584 215.399 28.9091C214.701 28.2552 213.992 27.7171 213.27 27.2896L213.245 27.1601C213.743 27.2594 214.191 27.3072 214.588 27.3072H214.885C215.328 27.3072 215.548 27.1463 215.548 26.8194L215.633 23.2371L215.653 17.0786C214.885 17.276 214.332 17.4407 213.991 17.5677C213.664 17.6821 213.218 17.8732 212.648 18.1436C212.677 18.043 212.72 17.965 212.776 17.9097C212.833 17.8808 213.032 17.7676 213.374 17.5677L213.394 17.5438C213.551 17.4344 213.674 17.3288 213.76 17.227H213.416C213.185 17.227 212.95 17.183 212.692 17.0975C212.609 17.5954 212.437 17.8456 212.184 17.8456C212.024 17.8456 211.826 17.696 211.584 17.3992C211.198 16.885 211.022 16.4575 211.051 16.1192V15.5849C211.093 14.5186 211.224 13.6686 211.437 13.0286L211.84 11.7487L212.009 12.0265C212.038 12.0819 212.058 12.1674 212.076 12.2793C212.143 12.2793 212.214 12.2717 212.286 12.2591ZM214.672 13.5391C215.087 13.5391 215.291 13.6686 215.291 13.9251C215.291 14.0635 215.109 14.335 214.739 14.7324C214.484 14.9901 214.12 15.4302 213.654 16.0564C214.049 15.9394 214.378 15.8841 214.631 15.8841C214.82 15.8841 215.144 15.9558 215.61 16.0953C215.598 15.7709 215.584 15.439 215.566 15.0957V14.6708C215.554 14.5563 215.549 14.4344 215.549 14.3074C215.534 14.2081 215.526 14.1075 215.526 14.0069C215.509 13.8384 215.504 13.6561 215.504 13.4561C215.548 12.6879 215.398 12.3044 215.055 12.3044H214.972L214.014 12.7306C213.872 12.8011 213.643 12.84 213.331 12.84C213.045 12.84 212.712 12.8162 212.329 12.7721C212.468 13.2286 212.576 13.7189 212.648 14.2445C213.631 13.7717 214.304 13.5391 214.672 13.5391ZM213.673 14.965C213.459 15.0241 213.289 15.0505 213.16 15.0505C213.106 15.0505 212.983 15.0304 212.799 14.9889C212.757 14.9889 212.713 14.9826 212.671 14.9637L212.756 16.1808C213.082 15.8564 213.389 15.4528 213.673 14.965Z" fill="white"/>
<path d="M223.852 19.763C224.069 19.7064 224.282 19.6473 224.496 19.5895C225.135 19.4361 225.518 19.3355 225.645 19.2953L227.392 18.6943C227.52 18.6528 227.691 18.6037 227.905 18.5484C228.145 18.4604 228.381 18.3837 228.608 18.312C228.791 18.2567 228.976 18.2001 229.162 18.1435C229.871 17.6594 230.343 17.3124 230.572 17.0987C230.809 16.8849 231.004 16.6246 231.146 16.309C230.306 16.6649 229.744 16.9566 229.462 17.1804L228.521 17.9298L227.99 18.3359C227.75 18.5333 227.57 18.6326 227.457 18.6326C227.13 18.6326 226.952 18.185 226.922 17.291C227.589 16.7617 228.073 16.3719 228.373 16.1167C228.669 15.8463 229.043 15.4855 229.48 15.0291C229.169 15.0743 228.903 15.0944 228.695 15.0944C228.579 15.0944 228.501 15.0856 228.458 15.0743L227.734 14.9637C227.407 14.9083 227.213 14.7952 227.157 14.6254L227.329 14.5173L231.145 13.2587C231.4 13.1757 231.661 13.1304 231.934 13.1304C232.513 13.1304 232.807 13.2813 232.807 13.5818C232.807 13.7503 232.452 14.0609 231.739 14.5161C231.527 14.6858 231.329 14.8568 231.144 15.0265C231.072 15.0831 230.938 15.19 230.739 15.3472C230.611 15.4616 230.476 15.5735 230.334 15.6879C230.388 15.6741 230.44 15.6665 230.481 15.6665C230.982 15.581 231.306 15.5169 231.463 15.4729C231.858 15.4012 232.149 15.3685 232.337 15.3685C232.577 15.3685 232.814 15.439 233.037 15.581C233.269 15.737 233.381 15.8878 233.381 16.0261C233.381 16.1833 232.978 16.6033 232.167 17.2885C232.263 17.2722 232.394 17.2546 232.551 17.2219C232.59 17.2093 232.628 17.203 232.656 17.203C232.683 17.1854 232.713 17.1766 232.742 17.1766C232.912 17.1364 233.017 17.1138 233.059 17.1138C233.19 17.1138 233.474 17.193 233.914 17.3501C234.143 17.4231 234.321 17.5224 234.447 17.6469L234.597 17.9461L233.339 18.2441L232.337 18.3925C231.642 18.5346 231.188 18.6352 230.972 18.6892C230.758 18.7471 230.439 18.8565 230.011 19.0086C229.728 19.2387 229.542 19.4575 229.459 19.6712C229.374 19.885 229.324 20.2408 229.309 20.7362C230.049 20.3665 230.582 20.1201 230.908 19.9918C231.222 19.8787 231.516 19.8196 231.804 19.8196C232.157 19.8196 232.499 19.9705 232.826 20.266C233.01 20.4231 233.109 20.9977 233.123 21.9936L233.167 25.1483L233.273 27.878V28.1974C233.273 29.6043 232.983 30.3085 232.399 30.3085C232.03 30.3085 231.566 29.8382 230.992 28.9002C230.796 28.5897 230.594 28.2892 230.397 28.0063C230.154 27.6793 229.82 27.2304 229.392 26.6634L229.586 26.7049C230.266 27.0469 230.794 27.36 231.163 27.6429C231.276 27.7573 231.333 27.8 231.333 27.7724C231.433 27.7145 231.516 27.4316 231.588 26.9174V25.5959V25.5758V25.5531V25.5116V25.4274V25.2338C231.588 25.0502 231.595 24.8666 231.613 24.6818C230.345 25.8612 229.577 26.4484 229.309 26.4484C229.238 26.4484 229.126 26.4232 228.969 26.3667V26.8558V26.8784V26.9186V26.984V27.1324C228.969 27.2594 228.974 27.3801 228.991 27.4945V27.9233C228.991 28.3885 228.891 28.7619 228.695 29.031C228.28 28.9744 227.931 28.6965 227.648 28.1999C227.366 27.6869 227.221 27.0934 227.221 26.4081C227.221 24.8037 227.548 23.1214 228.203 21.3561C228.319 21.0317 228.434 20.7085 228.564 20.3992C228.706 20.0283 228.847 19.6662 228.991 19.3104C228.878 19.3519 228.755 19.4059 228.628 19.4587C228.542 19.4876 228.466 19.5241 228.394 19.5656C228.365 19.5656 228.337 19.5744 228.309 19.5857C228.296 19.5857 228.28 19.597 228.267 19.6109L227.01 20.2685C226.626 20.4835 226.199 20.5916 225.727 20.5916C225.302 20.5916 224.669 20.3414 223.834 19.8435L223.852 19.763ZM229.353 11.2142C230.007 11.2142 230.579 11.3299 231.06 11.555C231.556 11.7851 231.807 12.0529 231.807 12.3647C231.807 12.708 231.583 12.8752 231.146 12.8752C230.943 12.8752 230.768 12.8274 230.613 12.7268C230.596 12.7268 230.584 12.7193 230.572 12.708H230.525C230.515 12.6929 230.499 12.6816 230.484 12.6665C230.469 12.6665 230.457 12.6589 230.442 12.6438H230.417L229.098 13.0902H229.076H229.055H228.97V12.9821C229.294 12.7822 229.552 12.5923 229.738 12.4087C229.709 12.3811 229.682 12.3496 229.653 12.322L229.63 12.3006L228.756 11.8115C228.671 11.7687 228.565 11.7034 228.434 11.6166C228.634 11.35 228.941 11.2142 229.353 11.2142ZM229.908 23.5351C229.722 23.5778 229.578 23.6005 229.48 23.6005C229.424 23.6005 229.346 23.5942 229.244 23.5778C229.187 23.5627 229.141 23.5552 229.097 23.5552L229.074 24.7912C229.431 24.38 229.709 23.9626 229.908 23.5351ZM230.588 22.0652C230.774 22.0652 231.094 22.2123 231.549 22.5116V21.9596C231.549 21.2894 231.402 20.955 231.102 20.955C231.046 20.955 230.943 21.0116 230.803 21.1285C230.378 21.4831 230.022 21.6616 229.739 21.6616C229.526 21.6616 229.353 21.6528 229.226 21.6365L229.143 22.7681C229.739 22.3004 230.222 22.0652 230.588 22.0652ZM230.294 24.4731C230.814 24.1638 231.242 23.8708 231.574 23.6005L231.549 22.577C231.392 22.8863 231.288 23.0749 231.229 23.1315L230.313 24.3448V24.3674C230.3 24.3674 230.293 24.375 230.293 24.3888C230.273 24.4039 230.261 24.424 230.249 24.4542C230.236 24.4668 230.222 24.4907 230.207 24.5171C230.237 24.502 230.262 24.4894 230.294 24.4731ZM236.578 18.8464C237.163 18.4604 237.604 18.1209 237.902 17.8242C238.2 17.5274 238.548 17.0999 238.946 16.5442C238.234 16.8283 237.698 17.0584 237.328 17.2257C236.984 17.3828 236.652 17.5614 236.325 17.7588C236.109 17.8883 235.96 17.9512 235.859 17.9512C235.503 17.9512 235.194 17.6029 234.939 16.9075C235.31 15.8413 235.56 14.9901 235.685 14.3488C235.828 13.695 235.897 13.0638 235.897 12.4515V11.8781C235.884 11.648 235.87 11.4079 235.86 11.1514C236.466 11.4506 236.872 11.765 237.074 12.0881C237.285 12.4024 237.406 12.9142 237.437 13.6221C237.675 13.5403 237.937 13.4385 238.223 13.3266C238.294 13.2989 238.355 13.2713 238.414 13.2424C238.841 13.314 239.197 13.4121 239.48 13.5403C239.766 13.6686 239.908 13.8031 239.908 13.9465C239.908 14.0433 239.802 14.1564 239.588 14.2872C239.375 14.4268 239.132 14.5274 238.862 14.5839C238.591 14.6556 238.101 14.6896 237.39 14.6896H237.285L236.88 16.0764L238.65 15.5672C238.807 15.5081 239.019 15.454 239.289 15.3924C239.361 15.3648 239.431 15.3434 239.503 15.3321L239.758 15.2667C240.797 15.3635 241.312 15.6288 241.312 16.0551C241.312 16.255 241.108 16.5241 240.696 16.8648C240.212 17.2936 239.694 17.7952 239.139 18.3786C239.608 18.4088 239.845 18.5358 239.845 18.7647C239.845 18.9495 239.752 19.0903 239.564 19.1896L238.248 19.8938C238.162 19.9503 238.014 20.0987 237.82 20.3414C238.643 20.0711 239.253 19.934 239.65 19.934C239.879 19.934 240.082 19.9918 240.271 20.1063C240.47 20.2358 240.565 20.3703 240.565 20.5124C240.565 20.6117 240.47 20.7299 240.271 20.8745C240.082 21.0141 239.701 21.2429 239.117 21.5547C238.694 21.7685 238.279 22.0967 237.882 22.5342L237.857 22.5581C237.82 22.587 237.803 22.6071 237.82 22.6222C237.82 22.6499 237.867 22.6713 237.968 22.6851C238.11 22.6713 238.253 22.6637 238.393 22.6637H238.545H238.694C239.828 22.6637 240.398 22.8775 240.398 23.305C240.398 23.4458 240.344 23.5451 240.248 23.603C240.135 23.6595 239.821 23.7438 239.31 23.857C239.18 23.8846 239.038 23.9286 238.885 23.984L237.968 24.3473L237.903 24.3046C237.945 24.2769 237.983 24.2405 238.012 24.1977C238.194 24.0292 238.336 23.9135 238.434 23.857C237.468 23.6885 236.986 23.4043 236.986 23.0057C236.986 22.8222 237.116 22.5996 237.372 22.3444C237.585 22.1193 237.833 21.8251 238.118 21.4705C238.044 21.4554 237.976 21.4491 237.905 21.4491C237.665 21.4215 237.451 21.3863 237.266 21.3435C236.851 22.323 236.573 23.1025 236.434 23.6885C236.289 24.2983 236.217 24.9672 236.217 25.6915C236.217 26.4861 236.397 27.0255 236.753 27.3097C237.25 27.7648 237.934 27.9924 238.801 27.9924C239.27 27.9924 239.83 27.9497 240.486 27.8642C241.135 27.7937 241.663 27.702 242.06 27.5863C242.346 27.5008 242.488 27.2468 242.488 26.8193C242.488 26.3654 242.217 25.5619 241.677 24.4102H241.785C242.282 25.2212 242.625 25.7178 242.808 25.9039L244.318 27.5875C244.461 27.7585 244.535 27.922 244.535 28.0754C244.535 28.7443 243.705 29.1743 242.04 29.3592L241.424 29.4396C241.122 29.456 240.631 29.4774 239.953 29.5063C238.887 29.4786 238.062 29.3755 237.48 29.207C236.88 29.0373 236.377 28.7443 235.967 28.3332C235.282 27.6932 234.941 26.764 234.941 25.5418C234.941 25.0326 235 24.4177 235.113 23.7099C235.244 22.9554 235.44 22.0275 235.711 20.9173C235.652 20.9173 235.574 20.9223 235.474 20.9374H235.433H235.394H235.369H235.349H235.326C235.112 20.9374 234.898 20.789 234.687 20.491L234.193 19.8737V19.7881C234.975 19.6549 235.771 19.3456 236.578 18.8464ZM237.305 26.7325C237.346 26.7061 237.388 26.676 237.436 26.647C237.461 26.6206 237.495 26.5917 237.541 26.5615C237.568 26.5477 237.595 26.5288 237.624 26.4974C238.067 26.2158 238.284 25.9593 238.284 25.7329C238.284 25.6776 238.264 25.6386 238.22 25.6248L237.646 25.1961H237.623V25.1797H237.603C237.603 25.1634 237.593 25.1546 237.58 25.1546V25.1332C237.565 25.1332 237.551 25.1269 237.539 25.1105C237.524 25.098 237.507 25.0892 237.492 25.0892C237.492 25.0753 237.485 25.069 237.475 25.069C237.475 25.054 237.465 25.0464 237.45 25.0464L237.475 24.9182C237.929 24.8754 238.337 24.8541 238.709 24.8541C239.207 24.8541 239.626 24.9534 239.964 25.1508C240.305 25.3482 240.48 25.5972 240.48 25.8977C240.48 26.1957 240.251 26.3428 239.797 26.3428H239.774H239.752H239.732H239.709C239.694 26.3428 239.686 26.3352 239.686 26.3214H239.664H239.641H239.621H239.598C238.761 26.3352 237.965 26.5138 237.214 26.8558L237.168 26.8344C237.222 26.8092 237.263 26.7753 237.305 26.7325Z" fill="white"/>
<path d="M251.509 17.945L252.705 14.8306C252.999 14.0774 253.154 13.5229 253.154 13.1683C253.154 12.9571 252.999 12.6201 252.705 12.1687H252.744L252.769 12.1474H252.833L252.853 12.1247H252.876H252.899C252.982 12.1247 253.161 12.1826 253.432 12.2983L254.132 12.5736C254.844 12.8716 255.198 13.2199 255.198 13.6172C255.198 13.8159 255.066 14.2094 254.796 14.7903L253.688 17.1152C252.949 18.6479 251.854 20.1052 250.405 21.4833C250.153 21.7385 249.916 21.9246 249.7 22.0377C249.501 22.1371 249.143 22.2741 248.615 22.4426L248.548 22.3571C249.953 20.8797 250.94 19.4111 251.509 17.945ZM252.491 19.3508C252.718 19.6802 252.87 20.0046 252.938 20.334C253.009 20.6748 253.043 21.2054 253.043 21.9321V22.4652C253.373 21.8542 253.594 21.4191 253.703 21.1626C253.843 20.8345 253.995 20.4396 254.15 19.9707C254.15 19.9832 254.157 19.9971 254.175 20.0096V20.0549V20.0964H254.198V20.1178V20.1404V20.1643C254.198 20.29 254.141 20.4673 254.023 20.6936C253.969 20.8093 253.861 21.1915 253.703 21.8454L253.299 23.7226C253.159 24.3035 253.087 24.809 253.087 25.234C253.087 25.889 253.062 26.3631 253.023 26.6636C252.923 27.2734 252.711 27.5802 252.382 27.5802C252.112 27.5802 251.864 27.2897 251.638 26.7088C251.395 26.1392 251.274 25.5433 251.274 24.9158C251.274 24.2067 251.36 23.4384 251.529 22.6136C251.702 21.7762 251.998 20.7024 252.423 19.3948L252.491 19.3508ZM258.032 14.4282C258.19 14.0586 258.327 13.6952 258.44 13.3406C258.556 12.9571 258.61 12.6805 258.61 12.5082C258.61 12.3096 258.509 11.9475 258.31 11.4219C258.792 11.5376 259.192 11.7199 259.504 11.9776C259.818 12.2329 259.973 12.5158 259.973 12.8289C259.973 13.1696 259.903 13.5418 259.761 13.9378C259.631 14.3239 259.336 15.0116 258.862 16.0062C259.574 15.8201 260.115 15.6655 260.483 15.5372C260.829 15.424 261.264 15.2468 261.807 15.0041C262.688 14.6357 263.369 14.4521 263.855 14.4521C264.209 14.4521 264.551 14.5502 264.878 14.7514C265.118 14.906 265.238 15.038 265.238 15.1537C265.238 15.453 264.551 15.7082 263.17 15.9182C262.959 15.9635 262.719 16.0125 262.448 16.0703C262.105 16.1407 261.748 16.225 261.38 16.3256C261.197 16.8939 261.104 17.3289 261.104 17.6244C261.104 17.7552 261.109 17.8457 261.124 17.9023L261.191 18.414C261.204 18.4706 261.209 18.619 261.209 18.8604V19.4363C262.404 18.7259 263.419 18.3713 264.259 18.3713C264.544 18.3713 264.8 18.4279 265.027 18.5398C265.267 18.668 265.388 18.8038 265.388 18.9472C265.388 19.1006 265.177 19.2879 264.749 19.5004C263.059 20.378 262.212 21.1274 262.212 21.736C262.212 22.3785 262.779 22.7104 263.916 22.7381C264.64 22.7544 265.279 22.8538 265.833 23.0373C266.376 23.2347 266.644 23.4586 266.644 23.6975C266.644 23.9125 266.494 24.0659 266.198 24.1677C266.154 24.1815 266.012 24.2017 265.77 24.2306C265.471 24.2872 265.168 24.3362 264.854 24.3789C264.714 24.3953 264.568 24.4116 264.429 24.4443C264.266 24.4582 264.119 24.4795 263.977 24.5097C263.54 24.565 262.854 24.8417 261.934 25.3383L261.893 25.2314C262.642 24.7486 263.176 24.3576 263.489 24.0596C262.809 23.8295 262.34 23.5981 262.085 23.3555C261.83 23.1279 261.704 22.8311 261.704 22.4627C261.704 21.9636 261.893 21.1601 262.276 20.0524C261.893 20.1517 261.532 20.2007 261.191 20.2007H261.105C261.031 21.0947 260.99 21.785 260.977 22.2704C260.946 22.7683 260.933 23.2146 260.933 23.6107C260.933 23.8383 260.941 23.9929 260.953 24.0809L261.059 27.3815V28.0014C261.059 28.371 261.012 28.6904 260.912 28.9633C260.799 29.2311 260.669 29.3669 260.528 29.3669C260.459 29.3669 260.25 29.1468 259.912 28.7043C259.343 28.0228 259.057 27.3086 259.057 26.5517C259.057 26.4548 259.065 26.3605 259.077 26.2725L259.443 23.8257L259.61 21.1186C259.639 20.5088 259.711 19.8826 259.824 19.2414C259.925 18.6592 260.112 17.8042 260.379 16.6839C259.598 17.0687 259.021 17.3818 258.652 17.6219C258.269 17.8784 257.879 18.1915 257.48 18.5599C257.169 18.873 256.911 19.0276 256.712 19.0276C256.202 19.0276 255.895 18.5184 255.798 17.4924C256.861 16.4173 257.607 15.3914 258.032 14.4282Z" fill="white"/>
<path d="M272.609 18.1135C274.482 18.1135 276 16.5952 276 14.7224C276 12.8495 274.482 11.3313 272.609 11.3313C270.736 11.3313 269.218 12.8495 269.218 14.7224C269.218 16.5952 270.736 18.1135 272.609 18.1135Z" stroke="white" stroke-width="0.348" stroke-miterlimit="10"/>
<path d="M273.724 16.8045C273.653 16.5908 273.629 16.4374 273.629 16.0879V15.7308C273.629 15.1612 273.312 15.0229 272.936 15.0229H271.629V16.8045H271.116V12.6389H273.093C273.938 12.6389 274.252 13.2399 274.252 13.7643C274.252 14.0736 274.139 14.3917 273.933 14.5866C273.82 14.6934 273.704 14.745 273.596 14.7903C273.753 14.8368 273.876 14.8695 274.001 15.0857C274.133 15.3045 274.143 15.5635 274.143 15.6905V16.0011C274.143 16.1796 274.169 16.3708 274.187 16.4839C274.216 16.6147 274.251 16.6587 274.334 16.719V16.8045H273.724ZM272.997 13.0626H271.629V14.6105H272.948C273.433 14.6105 273.714 14.2597 273.714 13.8208C273.714 13.4285 273.5 13.0626 272.997 13.0626Z" fill="white"/>
</svg>
