<svg width="19" height="19" viewBox="0 0 19 19" fill="none" xmlns="http://www.w3.org/2000/svg">
<path fill-rule="evenodd" clip-rule="evenodd" d="M4.286 4.24205C2.60356 5.92449 1.86532 8.19557 2.07563 10.394C2.08877 10.4959 2.08129 10.5995 2.05362 10.6984C2.02596 10.7974 1.97867 10.8898 1.91458 10.9701C1.85048 11.0505 1.77089 11.1171 1.68053 11.1661C1.59018 11.215 1.4909 11.2453 1.3886 11.2551C1.2863 11.2649 1.18308 11.2541 1.08506 11.2232C0.987042 11.1923 0.896233 11.142 0.818035 11.0754C0.739836 11.0087 0.675844 10.927 0.629862 10.835C0.58388 10.7431 0.556848 10.6429 0.550374 10.5404C0.383124 8.78566 0.723388 7.01984 1.5307 5.45292C2.33801 3.88601 3.57839 2.58395 5.10431 1.7016C6.63023 0.819254 8.37748 0.393759 10.1382 0.47572C11.899 0.55768 13.5991 1.14365 15.0365 2.16393L13.934 3.26641C12.4596 2.2926 10.6942 1.85782 8.93622 2.03559C7.17823 2.21337 5.53558 2.99278 4.286 4.24205ZM5.47845 16.0582C6.68601 16.8553 8.09445 17.2945 9.54105 17.3251C10.9876 17.3556 12.4134 16.9763 13.6535 16.2309C14.8937 15.4855 15.8976 14.4044 16.5494 13.1126C17.2012 11.8208 17.4742 10.3709 17.3368 8.93056C17.3237 8.82863 17.3312 8.72511 17.3589 8.62614C17.3865 8.52716 17.4338 8.43476 17.4979 8.35443C17.562 8.2741 17.6416 8.20748 17.7319 8.15853C17.8223 8.10957 17.9216 8.07929 18.0239 8.06947C18.1262 8.05966 18.2294 8.07051 18.3274 8.10139C18.4254 8.13227 18.5162 8.18254 18.5944 8.24922C18.6726 8.3159 18.7366 8.39762 18.7826 8.48953C18.8286 8.58143 18.8556 8.68165 18.8621 8.78421C19.0294 10.5389 18.6891 12.3047 17.8818 13.8717C17.0745 15.4386 15.8341 16.7406 14.3082 17.623C12.7822 18.5053 11.035 18.9308 9.27425 18.8489C7.51349 18.7669 5.81333 18.1809 4.37598 17.1606L5.47845 16.0582Z" fill="black"/>
</svg>
