<svg width="641" height="53" viewBox="0 0 641 53" fill="none" xmlns="http://www.w3.org/2000/svg">
<path d="M67.0388 18.1968C66.2688 18.1968 65.5788 18.0718 64.9688 17.8218C64.3588 17.5718 63.8688 17.2018 63.4988 16.7118C63.1388 16.2218 62.9488 15.6318 62.9288 14.9418H65.6588C65.6988 15.3318 65.8338 15.6318 66.0638 15.8418C66.2938 16.0418 66.5938 16.1418 66.9638 16.1418C67.3438 16.1418 67.6438 16.0568 67.8638 15.8868C68.0838 15.7068 68.1938 15.4618 68.1938 15.1518C68.1938 14.8918 68.1038 14.6768 67.9238 14.5068C67.7538 14.3368 67.5388 14.1968 67.2788 14.0868C67.0288 13.9768 66.6688 13.8518 66.1988 13.7118C65.5188 13.5018 64.9638 13.2918 64.5338 13.0818C64.1038 12.8718 63.7338 12.5618 63.4238 12.1518C63.1138 11.7418 62.9588 11.2068 62.9588 10.5468C62.9588 9.5668 63.3138 8.8018 64.0238 8.2518C64.7338 7.6918 65.6588 7.4118 66.7988 7.4118C67.9588 7.4118 68.8938 7.6918 69.6038 8.2518C70.3138 8.8018 70.6938 9.5718 70.7438 10.5618H67.9688C67.9488 10.2218 67.8238 9.9568 67.5938 9.7668C67.3638 9.5668 67.0688 9.4668 66.7088 9.4668C66.3988 9.4668 66.1488 9.5518 65.9588 9.7218C65.7688 9.8818 65.6738 10.1168 65.6738 10.4268C65.6738 10.7668 65.8338 11.0318 66.1538 11.2218C66.4738 11.4118 66.9738 11.6168 67.6538 11.8368C68.3338 12.0668 68.8838 12.2868 69.3038 12.4968C69.7338 12.7068 70.1038 13.0118 70.4138 13.4118C70.7238 13.8118 70.8788 14.3268 70.8788 14.9568C70.8788 15.5568 70.7238 16.1018 70.4138 16.5918C70.1138 17.0818 69.6738 17.4718 69.0938 17.7618C68.5138 18.0518 67.8288 18.1968 67.0388 18.1968ZM80.3473 13.7718C80.3473 14.0118 80.3323 14.2618 80.3023 14.5218H74.4973C74.5373 15.0418 74.7023 15.4418 74.9923 15.7218C75.2923 15.9918 75.6573 16.1268 76.0873 16.1268C76.7273 16.1268 77.1723 15.8568 77.4223 15.3168H80.1523C80.0123 15.8668 79.7573 16.3618 79.3873 16.8018C79.0273 17.2418 78.5723 17.5868 78.0223 17.8368C77.4723 18.0868 76.8573 18.2118 76.1773 18.2118C75.3573 18.2118 74.6273 18.0368 73.9873 17.6868C73.3473 17.3368 72.8473 16.8368 72.4873 16.1868C72.1273 15.5368 71.9473 14.7768 71.9473 13.9068C71.9473 13.0368 72.1223 12.2768 72.4723 11.6268C72.8323 10.9768 73.3323 10.4768 73.9723 10.1268C74.6123 9.7768 75.3473 9.6018 76.1773 9.6018C76.9873 9.6018 77.7073 9.7718 78.3373 10.1118C78.9673 10.4518 79.4573 10.9368 79.8073 11.5668C80.1673 12.1968 80.3473 12.9318 80.3473 13.7718ZM77.7223 13.0968C77.7223 12.6568 77.5723 12.3068 77.2723 12.0468C76.9723 11.7868 76.5973 11.6568 76.1473 11.6568C75.7173 11.6568 75.3523 11.7818 75.0523 12.0318C74.7623 12.2818 74.5823 12.6368 74.5123 13.0968H77.7223ZM86.8155 18.0918L84.2655 14.5818V18.0918H81.7005V6.9918H84.2655V13.1268L86.8005 9.7218H89.9655L86.4855 13.9218L89.9955 18.0918H86.8155ZM92.263 8.8518C91.813 8.8518 91.443 8.7218 91.153 8.4618C90.873 8.1918 90.733 7.8618 90.733 7.4718C90.733 7.0718 90.873 6.7418 91.153 6.4818C91.443 6.2118 91.813 6.0768 92.263 6.0768C92.703 6.0768 93.063 6.2118 93.343 6.4818C93.633 6.7418 93.778 7.0718 93.778 7.4718C93.778 7.8618 93.633 8.1918 93.343 8.4618C93.063 8.7218 92.703 8.8518 92.263 8.8518ZM93.538 9.7218V18.0918H90.973V9.7218H93.538ZM97.9618 11.1168C98.2618 10.6568 98.6368 10.2968 99.0868 10.0368C99.5368 9.7668 100.037 9.6318 100.587 9.6318V12.3468H99.8818C99.2418 12.3468 98.7618 12.4868 98.4418 12.7668C98.1218 13.0368 97.9618 13.5168 97.9618 14.2068V18.0918H95.3968V9.7218H97.9618V11.1168ZM110.363 9.7218L105.113 22.0668H102.353L104.273 17.8068L100.868 9.7218H103.733L105.668 14.9568L107.588 9.7218H110.363ZM119.555 9.7218V18.0918H116.99V16.9518C116.73 17.3218 116.375 17.6218 115.925 17.8518C115.485 18.0718 114.995 18.1818 114.455 18.1818C113.815 18.1818 113.25 18.0418 112.76 17.7618C112.27 17.4718 111.89 17.0568 111.62 16.5168C111.35 15.9768 111.215 15.3418 111.215 14.6118V9.7218H113.765V14.2668C113.765 14.8268 113.91 15.2618 114.2 15.5718C114.49 15.8818 114.88 16.0368 115.37 16.0368C115.87 16.0368 116.265 15.8818 116.555 15.5718C116.845 15.2618 116.99 14.8268 116.99 14.2668V9.7218H119.555ZM127.141 7.5618V18.0918H124.576V7.5618H127.141ZM134.1 9.6318C135.08 9.6318 135.86 9.9518 136.44 10.5918C137.03 11.2218 137.325 12.0918 137.325 13.2018V18.0918H134.775V13.5468C134.775 12.9868 134.63 12.5518 134.34 12.2418C134.05 11.9318 133.66 11.7768 133.17 11.7768C132.68 11.7768 132.29 11.9318 132 12.2418C131.71 12.5518 131.565 12.9868 131.565 13.5468V18.0918H129V9.7218H131.565V10.8318C131.825 10.4618 132.175 10.1718 132.615 9.9618C133.055 9.7418 133.55 9.6318 134.1 9.6318ZM143.773 15.9168V18.0918H142.468C141.538 18.0918 140.813 17.8668 140.293 17.4168C139.773 16.9568 139.513 16.2118 139.513 15.1818V11.8518H138.493V9.7218H139.513V7.6818H142.078V9.7218H143.758V11.8518H142.078V15.2118C142.078 15.4618 142.138 15.6418 142.258 15.7518C142.378 15.8618 142.578 15.9168 142.858 15.9168H143.773ZM153.091 13.7718C153.091 14.0118 153.076 14.2618 153.046 14.5218H147.241C147.281 15.0418 147.446 15.4418 147.736 15.7218C148.036 15.9918 148.401 16.1268 148.831 16.1268C149.471 16.1268 149.916 15.8568 150.166 15.3168H152.896C152.756 15.8668 152.501 16.3618 152.131 16.8018C151.771 17.2418 151.316 17.5868 150.766 17.8368C150.216 18.0868 149.601 18.2118 148.921 18.2118C148.101 18.2118 147.371 18.0368 146.731 17.6868C146.091 17.3368 145.591 16.8368 145.231 16.1868C144.871 15.5368 144.691 14.7768 144.691 13.9068C144.691 13.0368 144.866 12.2768 145.216 11.6268C145.576 10.9768 146.076 10.4768 146.716 10.1268C147.356 9.7768 148.091 9.6018 148.921 9.6018C149.731 9.6018 150.451 9.7718 151.081 10.1118C151.711 10.4518 152.201 10.9368 152.551 11.5668C152.911 12.1968 153.091 12.9318 153.091 13.7718ZM150.466 13.0968C150.466 12.6568 150.316 12.3068 150.016 12.0468C149.716 11.7868 149.341 11.6568 148.891 11.6568C148.461 11.6568 148.096 11.7818 147.796 12.0318C147.506 12.2818 147.326 12.6368 147.256 13.0968H150.466ZM157.01 11.1168C157.31 10.6568 157.685 10.2968 158.135 10.0368C158.585 9.7668 159.085 9.6318 159.635 9.6318V12.3468H158.93C158.29 12.3468 157.81 12.4868 157.49 12.7668C157.17 13.0368 157.01 13.5168 157.01 14.2068V18.0918H154.445V9.7218H157.01V11.1168ZM165.961 9.6318C166.941 9.6318 167.721 9.9518 168.301 10.5918C168.891 11.2218 169.186 12.0918 169.186 13.2018V18.0918H166.636V13.5468C166.636 12.9868 166.491 12.5518 166.201 12.2418C165.911 11.9318 165.521 11.7768 165.031 11.7768C164.541 11.7768 164.151 11.9318 163.861 12.2418C163.571 12.5518 163.426 12.9868 163.426 13.5468V18.0918H160.861V9.7218H163.426V10.8318C163.686 10.4618 164.036 10.1718 164.476 9.9618C164.916 9.7418 165.411 9.6318 165.961 9.6318ZM170.458 13.8918C170.458 13.0318 170.618 12.2768 170.938 11.6268C171.268 10.9768 171.713 10.4768 172.273 10.1268C172.833 9.7768 173.458 9.6018 174.148 9.6018C174.738 9.6018 175.253 9.7218 175.693 9.9618C176.143 10.2018 176.488 10.5168 176.728 10.9068V9.7218H179.293V18.0918H176.728V16.9068C176.478 17.2968 176.128 17.6118 175.678 17.8518C175.238 18.0918 174.723 18.2118 174.133 18.2118C173.453 18.2118 172.833 18.0368 172.273 17.6868C171.713 17.3268 171.268 16.8218 170.938 16.1718C170.618 15.5118 170.458 14.7518 170.458 13.8918ZM176.728 13.9068C176.728 13.2668 176.548 12.7618 176.188 12.3918C175.838 12.0218 175.408 11.8368 174.898 11.8368C174.388 11.8368 173.953 12.0218 173.593 12.3918C173.243 12.7518 173.068 13.2518 173.068 13.8918C173.068 14.5318 173.243 15.0418 173.593 15.4218C173.953 15.7918 174.388 15.9768 174.898 15.9768C175.408 15.9768 175.838 15.7918 176.188 15.4218C176.548 15.0518 176.728 14.5468 176.728 13.9068ZM185.814 15.9168V18.0918H184.509C183.579 18.0918 182.854 17.8668 182.334 17.4168C181.814 16.9568 181.554 16.2118 181.554 15.1818V11.8518H180.534V9.7218H181.554V7.6818H184.119V9.7218H185.799V11.8518H184.119V15.2118C184.119 15.4618 184.179 15.6418 184.299 15.7518C184.419 15.8618 184.619 15.9168 184.899 15.9168H185.814ZM188.533 8.8518C188.083 8.8518 187.713 8.7218 187.423 8.4618C187.143 8.1918 187.003 7.8618 187.003 7.4718C187.003 7.0718 187.143 6.7418 187.423 6.4818C187.713 6.2118 188.083 6.0768 188.533 6.0768C188.973 6.0768 189.333 6.2118 189.613 6.4818C189.903 6.7418 190.048 7.0718 190.048 7.4718C190.048 7.8618 189.903 8.1918 189.613 8.4618C189.333 8.7218 188.973 8.8518 188.533 8.8518ZM189.808 9.7218V18.0918H187.243V9.7218H189.808ZM195.476 18.2118C194.656 18.2118 193.916 18.0368 193.256 17.6868C192.606 17.3368 192.091 16.8368 191.711 16.1868C191.341 15.5368 191.156 14.7768 191.156 13.9068C191.156 13.0468 191.346 12.2918 191.726 11.6418C192.106 10.9818 192.626 10.4768 193.286 10.1268C193.946 9.7768 194.686 9.6018 195.506 9.6018C196.326 9.6018 197.066 9.7768 197.726 10.1268C198.386 10.4768 198.906 10.9818 199.286 11.6418C199.666 12.2918 199.856 13.0468 199.856 13.9068C199.856 14.7668 199.661 15.5268 199.271 16.1868C198.891 16.8368 198.366 17.3368 197.696 17.6868C197.036 18.0368 196.296 18.2118 195.476 18.2118ZM195.476 15.9918C195.966 15.9918 196.381 15.8118 196.721 15.4518C197.071 15.0918 197.246 14.5768 197.246 13.9068C197.246 13.2368 197.076 12.7218 196.736 12.3618C196.406 12.0018 195.996 11.8218 195.506 11.8218C195.006 11.8218 194.591 12.0018 194.261 12.3618C193.931 12.7118 193.766 13.2268 193.766 13.9068C193.766 14.5768 193.926 15.0918 194.246 15.4518C194.576 15.8118 194.986 15.9918 195.476 15.9918ZM206.317 9.6318C207.297 9.6318 208.077 9.9518 208.657 10.5918C209.247 11.2218 209.542 12.0918 209.542 13.2018V18.0918H206.992V13.5468C206.992 12.9868 206.847 12.5518 206.557 12.2418C206.267 11.9318 205.877 11.7768 205.387 11.7768C204.897 11.7768 204.507 11.9318 204.217 12.2418C203.927 12.5518 203.782 12.9868 203.782 13.5468V18.0918H201.217V9.7218H203.782V10.8318C204.042 10.4618 204.392 10.1718 204.832 9.9618C205.272 9.7418 205.767 9.6318 206.317 9.6318ZM210.815 13.8918C210.815 13.0318 210.975 12.2768 211.295 11.6268C211.625 10.9768 212.07 10.4768 212.63 10.1268C213.19 9.7768 213.815 9.6018 214.505 9.6018C215.095 9.6018 215.61 9.7218 216.05 9.9618C216.5 10.2018 216.845 10.5168 217.085 10.9068V9.7218H219.65V18.0918H217.085V16.9068C216.835 17.2968 216.485 17.6118 216.035 17.8518C215.595 18.0918 215.08 18.2118 214.49 18.2118C213.81 18.2118 213.19 18.0368 212.63 17.6868C212.07 17.3268 211.625 16.8218 211.295 16.1718C210.975 15.5118 210.815 14.7518 210.815 13.8918ZM217.085 13.9068C217.085 13.2668 216.905 12.7618 216.545 12.3918C216.195 12.0218 215.765 11.8368 215.255 11.8368C214.745 11.8368 214.31 12.0218 213.95 12.3918C213.6 12.7518 213.425 13.2518 213.425 13.8918C213.425 14.5318 213.6 15.0418 213.95 15.4218C214.31 15.7918 214.745 15.9768 215.255 15.9768C215.765 15.9768 216.195 15.7918 216.545 15.4218C216.905 15.0518 217.085 14.5468 217.085 13.9068ZM224.07 6.9918V18.0918H221.505V6.9918H224.07ZM62.7638 34.2818V33.3368H65.3138V44.0918H64.2488V34.2818H62.7638ZM73.0449 37.3568C73.2749 36.8468 73.6249 36.4518 74.0949 36.1718C74.5749 35.8918 75.1599 35.7518 75.8499 35.7518V36.8468H75.5649C74.8049 36.8468 74.1949 37.0518 73.7349 37.4618C73.2749 37.8718 73.0449 38.5568 73.0449 39.5168V44.0918H71.9949V35.9018H73.0449V37.3568ZM84.5245 35.9018V44.0918H83.4745V42.6518C83.2345 43.1618 82.8645 43.5518 82.3645 43.8218C81.8645 44.0918 81.3045 44.2268 80.6845 44.2268C79.7045 44.2268 78.9045 43.9268 78.2845 43.3268C77.6645 42.7168 77.3545 41.8368 77.3545 40.6868V35.9018H78.3895V40.5668C78.3895 41.4568 78.6095 42.1368 79.0495 42.6068C79.4995 43.0768 80.1095 43.3118 80.8795 43.3118C81.6695 43.3118 82.2995 43.0618 82.7695 42.5618C83.2395 42.0618 83.4745 41.3268 83.4745 40.3568V35.9018H84.5245ZM94.3317 39.5768C94.3317 39.9368 94.3217 40.2118 94.3017 40.4018H87.5067C87.5367 41.0218 87.6867 41.5518 87.9567 41.9918C88.2267 42.4318 88.5817 42.7668 89.0217 42.9968C89.4617 43.2168 89.9417 43.3268 90.4617 43.3268C91.1417 43.3268 91.7117 43.1618 92.1717 42.8318C92.6417 42.5018 92.9517 42.0568 93.1017 41.4968H94.2117C94.0117 42.2968 93.5817 42.9518 92.9217 43.4618C92.2717 43.9618 91.4517 44.2118 90.4617 44.2118C89.6917 44.2118 89.0017 44.0418 88.3917 43.7018C87.7817 43.3518 87.3017 42.8618 86.9517 42.2318C86.6117 41.5918 86.4417 40.8468 86.4417 39.9968C86.4417 39.1468 86.6117 38.4018 86.9517 37.7618C87.2917 37.1218 87.7667 36.6318 88.3767 36.2918C88.9867 35.9518 89.6817 35.7818 90.4617 35.7818C91.2417 35.7818 91.9217 35.9518 92.5017 36.2918C93.0917 36.6318 93.5417 37.0918 93.8517 37.6718C94.1717 38.2418 94.3317 38.8768 94.3317 39.5768ZM93.2667 39.5468C93.2767 38.9368 93.1517 38.4168 92.8917 37.9868C92.6417 37.5568 92.2967 37.2318 91.8567 37.0118C91.4167 36.7918 90.9367 36.6818 90.4167 36.6818C89.6367 36.6818 88.9717 36.9318 88.4217 37.4318C87.8717 37.9318 87.5667 38.6368 87.5067 39.5468H93.2667ZM105.949 44.0918L103.354 39.7118H101.419V44.0918H100.369V33.6068H103.519C104.689 33.6068 105.574 33.8868 106.174 34.4468C106.784 35.0068 107.089 35.7418 107.089 36.6518C107.089 37.4118 106.869 38.0618 106.429 38.6018C105.999 39.1318 105.359 39.4768 104.509 39.6368L107.209 44.0918H105.949ZM101.419 38.8568H103.534C104.354 38.8568 104.969 38.6568 105.379 38.2568C105.799 37.8568 106.009 37.3218 106.009 36.6518C106.009 35.9618 105.809 35.4318 105.409 35.0618C105.009 34.6818 104.379 34.4918 103.519 34.4918H101.419V38.8568ZM112.758 44.2118C111.988 44.2118 111.293 44.0418 110.673 43.7018C110.063 43.3518 109.578 42.8618 109.218 42.2318C108.868 41.5918 108.693 40.8468 108.693 39.9968C108.693 39.1468 108.873 38.4068 109.233 37.7768C109.593 37.1368 110.083 36.6468 110.703 36.3068C111.323 35.9568 112.018 35.7818 112.788 35.7818C113.558 35.7818 114.253 35.9568 114.873 36.3068C115.503 36.6468 115.993 37.1368 116.343 37.7768C116.703 38.4068 116.883 39.1468 116.883 39.9968C116.883 40.8368 116.703 41.5768 116.343 42.2168C115.983 42.8568 115.488 43.3518 114.858 43.7018C114.228 44.0418 113.528 44.2118 112.758 44.2118ZM112.758 43.2968C113.298 43.2968 113.798 43.1768 114.258 42.9368C114.718 42.6868 115.088 42.3168 115.368 41.8268C115.658 41.3268 115.803 40.7168 115.803 39.9968C115.803 39.2768 115.663 38.6718 115.383 38.1818C115.103 37.6818 114.733 37.3118 114.273 37.0718C113.813 36.8218 113.313 36.6968 112.773 36.6968C112.233 36.6968 111.733 36.8218 111.273 37.0718C110.813 37.3118 110.443 37.6818 110.163 38.1818C109.893 38.6718 109.758 39.2768 109.758 39.9968C109.758 40.7168 109.893 41.3268 110.163 41.8268C110.443 42.3168 110.808 42.6868 111.258 42.9368C111.718 43.1768 112.218 43.2968 112.758 43.2968ZM122.697 35.7518C123.317 35.7518 123.872 35.8818 124.362 36.1418C124.862 36.4018 125.252 36.8018 125.532 37.3418C125.822 37.8718 125.967 38.5218 125.967 39.2918V44.0918H124.932V39.4118C124.932 38.5218 124.707 37.8418 124.257 37.3718C123.817 36.9018 123.212 36.6668 122.442 36.6668C121.652 36.6668 121.022 36.9168 120.552 37.4168C120.082 37.9168 119.847 38.6518 119.847 39.6218V44.0918H118.797V32.9918H119.847V37.2968C120.107 36.8068 120.487 36.4268 120.987 36.1568C121.497 35.8868 122.067 35.7518 122.697 35.7518ZM127.809 39.9818C127.809 39.1418 127.974 38.4068 128.304 37.7768C128.644 37.1368 129.109 36.6468 129.699 36.3068C130.299 35.9568 130.974 35.7818 131.724 35.7818C132.504 35.7818 133.174 35.9618 133.734 36.3218C134.304 36.6818 134.714 37.1418 134.964 37.7018V35.9018H136.014V44.0918H134.964V42.2768C134.704 42.8368 134.289 43.3018 133.719 43.6718C133.159 44.0318 132.489 44.2118 131.709 44.2118C130.969 44.2118 130.299 44.0368 129.699 43.6868C129.109 43.3368 128.644 42.8418 128.304 42.2018C127.974 41.5618 127.809 40.8218 127.809 39.9818ZM134.964 39.9968C134.964 39.3368 134.829 38.7568 134.559 38.2568C134.289 37.7568 133.919 37.3718 133.449 37.1018C132.989 36.8318 132.479 36.6968 131.919 36.6968C131.339 36.6968 130.819 36.8268 130.359 37.0868C129.899 37.3468 129.534 37.7268 129.264 38.2268C129.004 38.7168 128.874 39.3018 128.874 39.9818C128.874 40.6518 129.004 41.2418 129.264 41.7518C129.534 42.2518 129.899 42.6368 130.359 42.9068C130.819 43.1668 131.339 43.2968 131.919 43.2968C132.479 43.2968 132.989 43.1618 133.449 42.8918C133.919 42.6218 134.289 42.2368 134.559 41.7368C134.829 41.2368 134.964 40.6568 134.964 39.9968ZM142.251 35.7518C143.231 35.7518 144.031 36.0568 144.651 36.6668C145.271 37.2668 145.581 38.1418 145.581 39.2918V44.0918H144.546V39.4118C144.546 38.5218 144.321 37.8418 143.871 37.3718C143.431 36.9018 142.826 36.6668 142.056 36.6668C141.266 36.6668 140.636 36.9168 140.166 37.4168C139.696 37.9168 139.461 38.6518 139.461 39.6218V44.0918H138.411V35.9018H139.461V37.2968C139.721 36.7968 140.096 36.4168 140.586 36.1568C141.076 35.8868 141.631 35.7518 142.251 35.7518ZM157.974 35.9618C157.754 34.6618 156.999 34.0118 155.709 34.0118C154.729 34.0118 153.994 34.3918 153.504 35.1518C153.014 35.9118 152.789 37.1568 152.829 38.8868C153.029 38.2868 153.409 37.8168 153.969 37.4768C154.539 37.1268 155.189 36.9518 155.919 36.9518C156.969 36.9518 157.799 37.2768 158.409 37.9268C159.029 38.5668 159.339 39.4518 159.339 40.5818C159.339 41.2418 159.209 41.8418 158.949 42.3818C158.699 42.9118 158.309 43.3368 157.779 43.6568C157.259 43.9768 156.609 44.1368 155.829 44.1368C154.339 44.1368 153.309 43.6618 152.739 42.7118C152.179 41.7618 151.899 40.4168 151.899 38.6768C151.899 34.9768 153.169 33.1268 155.709 33.1268C156.669 33.1268 157.424 33.3918 157.974 33.9218C158.524 34.4418 158.849 35.1218 158.949 35.9618H157.974ZM155.724 37.8518C155.254 37.8518 154.809 37.9468 154.389 38.1368C153.969 38.3268 153.624 38.6168 153.354 39.0068C153.094 39.3868 152.964 39.8568 152.964 40.4168C152.964 41.2268 153.204 41.9018 153.684 42.4418C154.164 42.9818 154.864 43.2518 155.784 43.2518C156.554 43.2518 157.169 43.0168 157.629 42.5468C158.089 42.0768 158.319 41.4368 158.319 40.6268C158.319 39.7568 158.094 39.0768 157.644 38.5868C157.194 38.0968 156.554 37.8518 155.724 37.8518ZM167.663 34.1618L163.478 44.0918H162.413L166.643 34.2518H160.643V33.3518H167.663V34.1618ZM175.661 34.1618L171.476 44.0918H170.411L174.641 34.2518H168.641V33.3518H175.661V34.1618ZM178.619 41.2268C178.729 41.8768 178.979 42.3768 179.369 42.7268C179.759 43.0768 180.294 43.2518 180.974 43.2518C181.914 43.2518 182.609 42.8868 183.059 42.1568C183.519 41.4168 183.729 40.1968 183.689 38.4968C183.499 39.0468 183.134 39.4818 182.594 39.8018C182.064 40.1118 181.454 40.2668 180.764 40.2668C179.714 40.2668 178.869 39.9518 178.229 39.3218C177.599 38.6918 177.284 37.8168 177.284 36.6968C177.284 36.0268 177.414 35.4218 177.674 34.8818C177.934 34.3418 178.329 33.9168 178.859 33.6068C179.389 33.2968 180.039 33.1418 180.809 33.1418C182.229 33.1418 183.219 33.6068 183.779 34.5368C184.339 35.4568 184.619 36.7818 184.619 38.5118C184.619 40.3818 184.339 41.7868 183.779 42.7268C183.229 43.6668 182.279 44.1368 180.929 44.1368C179.939 44.1368 179.169 43.8718 178.619 43.3418C178.069 42.8018 177.744 42.0968 177.644 41.2268H178.619ZM180.929 39.3668C181.399 39.3668 181.829 39.2718 182.219 39.0818C182.619 38.8818 182.939 38.5918 183.179 38.2118C183.419 37.8318 183.539 37.3768 183.539 36.8468C183.539 36.0268 183.304 35.3518 182.834 34.8218C182.374 34.2918 181.709 34.0268 180.839 34.0268C180.069 34.0268 179.449 34.2668 178.979 34.7468C178.519 35.2268 178.289 35.8668 178.289 36.6668C178.289 37.5068 178.519 38.1668 178.979 38.6468C179.439 39.1268 180.089 39.3668 180.929 39.3668ZM186.599 38.6168C186.599 36.8968 186.864 35.5618 187.394 34.6118C187.924 33.6618 188.874 33.1868 190.244 33.1868C191.614 33.1868 192.564 33.6618 193.094 34.6118C193.624 35.5618 193.889 36.8968 193.889 38.6168C193.889 40.3668 193.624 41.7218 193.094 42.6818C192.564 43.6418 191.614 44.1218 190.244 44.1218C188.864 44.1218 187.909 43.6418 187.379 42.6818C186.859 41.7218 186.599 40.3668 186.599 38.6168ZM192.854 38.6168C192.854 37.6868 192.789 36.9018 192.659 36.2618C192.529 35.6218 192.274 35.1068 191.894 34.7168C191.514 34.3268 190.964 34.1318 190.244 34.1318C189.524 34.1318 188.974 34.3268 188.594 34.7168C188.214 35.1068 187.959 35.6218 187.829 36.2618C187.699 36.9018 187.634 37.6868 187.634 38.6168C187.634 39.5768 187.699 40.3818 187.829 41.0318C187.959 41.6718 188.214 42.1868 188.594 42.5768C188.974 42.9668 189.524 43.1618 190.244 43.1618C190.964 43.1618 191.514 42.9668 191.894 42.5768C192.274 42.1868 192.529 41.6718 192.659 41.0318C192.789 40.3818 192.854 39.5768 192.854 38.6168ZM203.363 44.1968C202.673 44.1968 202.063 44.0768 201.533 43.8368C201.013 43.5968 200.603 43.2618 200.303 42.8318C200.003 42.4018 199.843 41.9218 199.823 41.3918H200.933C200.983 41.9018 201.208 42.3518 201.608 42.7418C202.008 43.1218 202.593 43.3118 203.363 43.3118C204.073 43.3118 204.633 43.1318 205.043 42.7718C205.463 42.4018 205.673 41.9368 205.673 41.3768C205.673 40.9268 205.558 40.5668 205.328 40.2968C205.098 40.0168 204.813 39.8118 204.473 39.6818C204.133 39.5418 203.663 39.3918 203.063 39.2318C202.363 39.0418 201.808 38.8568 201.398 38.6768C200.988 38.4968 200.638 38.2168 200.348 37.8368C200.058 37.4568 199.913 36.9418 199.913 36.2918C199.913 35.7518 200.053 35.2718 200.333 34.8518C200.613 34.4218 201.008 34.0868 201.518 33.8468C202.028 33.6068 202.613 33.4868 203.273 33.4868C204.243 33.4868 205.023 33.7268 205.613 34.2068C206.213 34.6768 206.558 35.2868 206.648 36.0368H205.508C205.438 35.6068 205.203 35.2268 204.803 34.8968C204.403 34.5568 203.863 34.3868 203.183 34.3868C202.553 34.3868 202.028 34.5568 201.608 34.8968C201.188 35.2268 200.978 35.6818 200.978 36.2618C200.978 36.7018 201.093 37.0568 201.323 37.3268C201.553 37.5968 201.838 37.8018 202.178 37.9418C202.528 38.0818 202.998 38.2318 203.588 38.3918C204.268 38.5818 204.818 38.7718 205.238 38.9618C205.658 39.1418 206.013 39.4218 206.303 39.8018C206.593 40.1818 206.738 40.6918 206.738 41.3318C206.738 41.8218 206.608 42.2868 206.348 42.7268C206.088 43.1668 205.703 43.5218 205.193 43.7918C204.683 44.0618 204.073 44.1968 203.363 44.1968ZM214.902 33.6068V34.4768H211.992V44.0918H210.942V34.4768H208.017V33.6068H214.902ZM217.61 34.4618V38.3768H221.585V39.2468H217.61V43.2218H222.035V44.0918H216.56V33.5918H222.035V34.4618H217.61ZM225.154 33.6068V44.0918H224.104V33.6068H225.154ZM235.437 44.0918H234.387L228.582 35.2718V44.0918H227.532V33.6068H228.582L234.387 42.4118V33.6068H235.437V44.0918ZM242.72 38.6768C243.31 38.7868 243.81 39.0868 244.22 39.5768C244.63 40.0668 244.835 40.6368 244.835 41.2868C244.835 41.8168 244.7 42.2968 244.43 42.7268C244.17 43.1468 243.785 43.4818 243.275 43.7318C242.765 43.9718 242.155 44.0918 241.445 44.0918H237.815V33.6068H241.34C242.4 33.6068 243.205 33.8518 243.755 34.3418C244.315 34.8318 244.595 35.4668 244.595 36.2468C244.595 36.8968 244.42 37.4268 244.07 37.8368C243.72 38.2368 243.27 38.5168 242.72 38.6768ZM238.865 38.2418H241.31C242.02 38.2418 242.565 38.0768 242.945 37.7468C243.335 37.4068 243.53 36.9418 243.53 36.3518C243.53 35.7718 243.335 35.3168 242.945 34.9868C242.565 34.6568 242.005 34.4918 241.265 34.4918H238.865V38.2418ZM241.37 43.2068C242.13 43.2068 242.72 43.0268 243.14 42.6668C243.57 42.3068 243.785 41.8118 243.785 41.1818C243.785 40.5518 243.56 40.0518 243.11 39.6818C242.67 39.3018 242.075 39.1118 241.325 39.1118H238.865V43.2068H241.37ZM251.475 44.1968C250.505 44.1968 249.625 43.9718 248.835 43.5218C248.045 43.0618 247.42 42.4268 246.96 41.6168C246.51 40.7968 246.285 39.8718 246.285 38.8418C246.285 37.8118 246.51 36.8918 246.96 36.0818C247.42 35.2618 248.045 34.6268 248.835 34.1768C249.625 33.7168 250.505 33.4868 251.475 33.4868C252.455 33.4868 253.34 33.7168 254.13 34.1768C254.92 34.6268 255.54 35.2618 255.99 36.0818C256.44 36.8918 256.665 37.8118 256.665 38.8418C256.665 39.8718 256.44 40.7968 255.99 41.6168C255.54 42.4268 254.92 43.0618 254.13 43.5218C253.34 43.9718 252.455 44.1968 251.475 44.1968ZM251.475 43.2818C252.255 43.2818 252.955 43.1018 253.575 42.7418C254.195 42.3818 254.685 41.8668 255.045 41.1968C255.405 40.5168 255.585 39.7318 255.585 38.8418C255.585 37.9518 255.405 37.1718 255.045 36.5018C254.685 35.8318 254.195 35.3168 253.575 34.9568C252.955 34.5968 252.255 34.4168 251.475 34.4168C250.695 34.4168 249.995 34.5968 249.375 34.9568C248.755 35.3168 248.265 35.8318 247.905 36.5018C247.545 37.1718 247.365 37.9518 247.365 38.8418C247.365 39.7318 247.545 40.5168 247.905 41.1968C248.265 41.8668 248.755 42.3818 249.375 42.7418C249.995 43.1018 250.695 43.2818 251.475 43.2818ZM259.592 33.6068V40.2068C259.592 41.2468 259.837 42.0168 260.327 42.5168C260.827 43.0168 261.507 43.2668 262.367 43.2668C263.227 43.2668 263.897 43.0218 264.377 42.5318C264.867 42.0318 265.112 41.2568 265.112 40.2068V33.6068H266.162V40.1918C266.162 41.5218 265.807 42.5218 265.097 43.1918C264.397 43.8618 263.482 44.1968 262.352 44.1968C261.222 44.1968 260.302 43.8618 259.592 43.1918C258.892 42.5218 258.542 41.5218 258.542 40.1918V33.6068H259.592ZM274.084 44.0918L271.489 39.7118H269.554V44.0918H268.504V33.6068H271.654C272.824 33.6068 273.709 33.8868 274.309 34.4468C274.919 35.0068 275.224 35.7418 275.224 36.6518C275.224 37.4118 275.004 38.0618 274.564 38.6018C274.134 39.1318 273.494 39.4768 272.644 39.6368L275.344 44.0918H274.084ZM269.554 38.8568H271.669C272.489 38.8568 273.104 38.6568 273.514 38.2568C273.934 37.8568 274.144 37.3218 274.144 36.6518C274.144 35.9618 273.944 35.4318 273.544 35.0618C273.144 34.6818 272.514 34.4918 271.654 34.4918H269.554V38.8568ZM285.557 36.6668C285.257 35.9768 284.797 35.4368 284.177 35.0468C283.567 34.6468 282.847 34.4468 282.017 34.4468C281.237 34.4468 280.537 34.6268 279.917 34.9868C279.297 35.3468 278.807 35.8618 278.447 36.5318C278.087 37.1918 277.907 37.9618 277.907 38.8418C277.907 39.7218 278.087 40.4968 278.447 41.1668C278.807 41.8368 279.297 42.3518 279.917 42.7118C280.537 43.0718 281.237 43.2518 282.017 43.2518C282.747 43.2518 283.402 43.0968 283.982 42.7868C284.572 42.4668 285.042 42.0168 285.392 41.4368C285.752 40.8468 285.957 40.1618 286.007 39.3818H281.597V38.5268H287.117V39.2918C287.067 40.2118 286.817 41.0468 286.367 41.7968C285.917 42.5368 285.312 43.1218 284.552 43.5518C283.802 43.9818 282.957 44.1968 282.017 44.1968C281.047 44.1968 280.167 43.9718 279.377 43.5218C278.587 43.0618 277.962 42.4268 277.502 41.6168C277.052 40.7968 276.827 39.8718 276.827 38.8418C276.827 37.8118 277.052 36.8918 277.502 36.0818C277.962 35.2618 278.587 34.6268 279.377 34.1768C280.167 33.7168 281.047 33.4868 282.017 33.4868C283.137 33.4868 284.117 33.7668 284.957 34.3268C285.797 34.8868 286.407 35.6668 286.787 36.6668H285.557ZM290.001 42.3518L288.441 46.2818H287.721L288.831 42.3518H290.001ZM301.42 33.6068V34.4768H296.8V38.3918H300.7V39.2618H296.8V44.0918H295.75V33.6068H301.42ZM304.197 37.3568C304.427 36.8468 304.777 36.4518 305.247 36.1718C305.727 35.8918 306.312 35.7518 307.002 35.7518V36.8468H306.717C305.957 36.8468 305.347 37.0518 304.887 37.4618C304.427 37.8718 304.197 38.5568 304.197 39.5168V44.0918H303.147V35.9018H304.197V37.3568ZM308.102 39.9818C308.102 39.1418 308.267 38.4068 308.597 37.7768C308.937 37.1368 309.402 36.6468 309.992 36.3068C310.592 35.9568 311.267 35.7818 312.017 35.7818C312.797 35.7818 313.467 35.9618 314.027 36.3218C314.597 36.6818 315.007 37.1418 315.257 37.7018V35.9018H316.307V44.0918H315.257V42.2768C314.997 42.8368 314.582 43.3018 314.012 43.6718C313.452 44.0318 312.782 44.2118 312.002 44.2118C311.262 44.2118 310.592 44.0368 309.992 43.6868C309.402 43.3368 308.937 42.8418 308.597 42.2018C308.267 41.5618 308.102 40.8218 308.102 39.9818ZM315.257 39.9968C315.257 39.3368 315.122 38.7568 314.852 38.2568C314.582 37.7568 314.212 37.3718 313.742 37.1018C313.282 36.8318 312.772 36.6968 312.212 36.6968C311.632 36.6968 311.112 36.8268 310.652 37.0868C310.192 37.3468 309.827 37.7268 309.557 38.2268C309.297 38.7168 309.167 39.3018 309.167 39.9818C309.167 40.6518 309.297 41.2418 309.557 41.7518C309.827 42.2518 310.192 42.6368 310.652 42.9068C311.112 43.1668 311.632 43.2968 312.212 43.2968C312.772 43.2968 313.282 43.1618 313.742 42.8918C314.212 42.6218 314.582 42.2368 314.852 41.7368C315.122 41.2368 315.257 40.6568 315.257 39.9968ZM322.544 35.7518C323.524 35.7518 324.324 36.0568 324.944 36.6668C325.564 37.2668 325.874 38.1418 325.874 39.2918V44.0918H324.839V39.4118C324.839 38.5218 324.614 37.8418 324.164 37.3718C323.724 36.9018 323.119 36.6668 322.349 36.6668C321.559 36.6668 320.929 36.9168 320.459 37.4168C319.989 37.9168 319.754 38.6518 319.754 39.6218V44.0918H318.704V35.9018H319.754V37.2968C320.014 36.7968 320.389 36.4168 320.879 36.1568C321.369 35.8868 321.924 35.7518 322.544 35.7518ZM327.716 39.9968C327.716 39.1468 327.886 38.4068 328.226 37.7768C328.566 37.1368 329.036 36.6468 329.636 36.3068C330.236 35.9568 330.921 35.7818 331.691 35.7818C332.701 35.7818 333.531 36.0318 334.181 36.5318C334.841 37.0318 335.266 37.7118 335.456 38.5718H334.331C334.191 37.9818 333.886 37.5218 333.416 37.1918C332.956 36.8518 332.381 36.6818 331.691 36.6818C331.141 36.6818 330.646 36.8068 330.206 37.0568C329.766 37.3068 329.416 37.6818 329.156 38.1818C328.906 38.6718 328.781 39.2768 328.781 39.9968C328.781 40.7168 328.906 41.3268 329.156 41.8268C329.416 42.3268 329.766 42.7018 330.206 42.9518C330.646 43.2018 331.141 43.3268 331.691 43.3268C332.381 43.3268 332.956 43.1618 333.416 42.8318C333.886 42.4918 334.191 42.0218 334.331 41.4218H335.456C335.266 42.2618 334.841 42.9368 334.181 43.4468C333.521 43.9568 332.691 44.2118 331.691 44.2118C330.921 44.2118 330.236 44.0418 329.636 43.7018C329.036 43.3518 328.566 42.8618 328.226 42.2318C327.886 41.5918 327.716 40.8468 327.716 39.9968ZM344.805 39.5768C344.805 39.9368 344.795 40.2118 344.775 40.4018H337.98C338.01 41.0218 338.16 41.5518 338.43 41.9918C338.7 42.4318 339.055 42.7668 339.495 42.9968C339.935 43.2168 340.415 43.3268 340.935 43.3268C341.615 43.3268 342.185 43.1618 342.645 42.8318C343.115 42.5018 343.425 42.0568 343.575 41.4968H344.685C344.485 42.2968 344.055 42.9518 343.395 43.4618C342.745 43.9618 341.925 44.2118 340.935 44.2118C340.165 44.2118 339.475 44.0418 338.865 43.7018C338.255 43.3518 337.775 42.8618 337.425 42.2318C337.085 41.5918 336.915 40.8468 336.915 39.9968C336.915 39.1468 337.085 38.4018 337.425 37.7618C337.765 37.1218 338.24 36.6318 338.85 36.2918C339.46 35.9518 340.155 35.7818 340.935 35.7818C341.715 35.7818 342.395 35.9518 342.975 36.2918C343.565 36.6318 344.015 37.0918 344.325 37.6718C344.645 38.2418 344.805 38.8768 344.805 39.5768ZM343.74 39.5468C343.75 38.9368 343.625 38.4168 343.365 37.9868C343.115 37.5568 342.77 37.2318 342.33 37.0118C341.89 36.7918 341.41 36.6818 340.89 36.6818C340.11 36.6818 339.445 36.9318 338.895 37.4318C338.345 37.9318 338.04 38.6368 337.98 39.5468H343.74Z" fill="black"/>
<rect x="0.689453" y="5.28711" width="41.6094" height="41.6094" rx="7" fill="#E31019"/>
<path d="M21.4941 15.9668C19.3821 15.9667 17.3553 16.809 15.8544 18.3105C14.3535 19.8121 13.4996 21.8516 13.4785 23.9858C13.4785 29.5343 20.5423 35.7105 20.8429 35.9737C21.0244 36.1306 21.2553 36.2168 21.4941 36.2168C21.733 36.2168 21.9639 36.1306 22.1454 35.9737C22.4961 35.7105 29.5098 29.5343 29.5098 23.9858C29.4886 21.8516 28.6348 19.8121 27.1339 18.3105C25.633 16.809 23.6062 15.9667 21.4941 15.9668ZM21.4941 27.1043C20.8006 27.1043 20.1225 26.8964 19.5458 26.507C18.9692 26.1176 18.5197 25.5642 18.2542 24.9167C17.9888 24.2691 17.9194 23.5566 18.0547 22.8692C18.19 22.1818 18.524 21.5503 19.0144 21.0547C19.5049 20.5591 20.1297 20.2216 20.81 20.0849C21.4902 19.9481 22.1954 20.0183 22.8361 20.2865C23.4769 20.5548 24.0246 21.009 24.41 21.5917C24.7953 22.1745 25.001 22.8596 25.001 23.5605C25.001 24.5004 24.6315 25.4017 23.9738 26.0663C23.3162 26.7309 22.4242 27.1043 21.4941 27.1043Z" fill="white"/>
<path d="M484.303 18.0918H481.738L477.448 11.5968V18.0918H474.883V7.5618H477.448L481.738 14.0868V7.5618H484.303V18.0918ZM485.652 13.8918C485.652 13.0318 485.812 12.2768 486.132 11.6268C486.462 10.9768 486.907 10.4768 487.467 10.1268C488.027 9.7768 488.652 9.6018 489.342 9.6018C489.932 9.6018 490.447 9.7218 490.887 9.9618C491.337 10.2018 491.682 10.5168 491.922 10.9068V9.7218H494.487V18.0918H491.922V16.9068C491.672 17.2968 491.322 17.6118 490.872 17.8518C490.432 18.0918 489.917 18.2118 489.327 18.2118C488.647 18.2118 488.027 18.0368 487.467 17.6868C486.907 17.3268 486.462 16.8218 486.132 16.1718C485.812 15.5118 485.652 14.7518 485.652 13.8918ZM491.922 13.9068C491.922 13.2668 491.742 12.7618 491.382 12.3918C491.032 12.0218 490.602 11.8368 490.092 11.8368C489.582 11.8368 489.147 12.0218 488.787 12.3918C488.437 12.7518 488.262 13.2518 488.262 13.8918C488.262 14.5318 488.437 15.0418 488.787 15.4218C489.147 15.7918 489.582 15.9768 490.092 15.9768C490.602 15.9768 491.032 15.7918 491.382 15.4218C491.742 15.0518 491.922 14.5468 491.922 13.9068ZM498.908 10.9068C499.158 10.5168 499.503 10.2018 499.943 9.9618C500.383 9.7218 500.898 9.6018 501.488 9.6018C502.178 9.6018 502.803 9.7768 503.363 10.1268C503.923 10.4768 504.363 10.9768 504.683 11.6268C505.013 12.2768 505.178 13.0318 505.178 13.8918C505.178 14.7518 505.013 15.5118 504.683 16.1718C504.363 16.8218 503.923 17.3268 503.363 17.6868C502.803 18.0368 502.178 18.2118 501.488 18.2118C500.908 18.2118 500.393 18.0918 499.943 17.8518C499.503 17.6118 499.158 17.3018 498.908 16.9218V22.0818H496.343V9.7218H498.908V10.9068ZM502.568 13.8918C502.568 13.2518 502.388 12.7518 502.028 12.3918C501.678 12.0218 501.243 11.8368 500.723 11.8368C500.213 11.8368 499.778 12.0218 499.418 12.3918C499.068 12.7618 498.893 13.2668 498.893 13.9068C498.893 14.5468 499.068 15.0518 499.418 15.4218C499.778 15.7918 500.213 15.9768 500.723 15.9768C501.233 15.9768 501.668 15.7918 502.028 15.4218C502.388 15.0418 502.568 14.5318 502.568 13.8918ZM507.814 8.8518C507.364 8.8518 506.994 8.7218 506.704 8.4618C506.424 8.1918 506.284 7.8618 506.284 7.4718C506.284 7.0718 506.424 6.7418 506.704 6.4818C506.994 6.2118 507.364 6.0768 507.814 6.0768C508.254 6.0768 508.614 6.2118 508.894 6.4818C509.184 6.7418 509.329 7.0718 509.329 7.4718C509.329 7.8618 509.184 8.1918 508.894 8.4618C508.614 8.7218 508.254 8.8518 507.814 8.8518ZM509.089 9.7218V18.0918H506.524V9.7218H509.089ZM514.353 18.2118C513.623 18.2118 512.973 18.0868 512.403 17.8368C511.833 17.5868 511.383 17.2468 511.053 16.8168C510.723 16.3768 510.538 15.8868 510.498 15.3468H513.033C513.063 15.6368 513.198 15.8718 513.438 16.0518C513.678 16.2318 513.973 16.3218 514.323 16.3218C514.643 16.3218 514.888 16.2618 515.058 16.1418C515.238 16.0118 515.328 15.8468 515.328 15.6468C515.328 15.4068 515.203 15.2318 514.953 15.1218C514.703 15.0018 514.298 14.8718 513.738 14.7318C513.138 14.5918 512.638 14.4468 512.238 14.2968C511.838 14.1368 511.493 13.8918 511.203 13.5618C510.913 13.2218 510.768 12.7668 510.768 12.1968C510.768 11.7168 510.898 11.2818 511.158 10.8918C511.428 10.4918 511.818 10.1768 512.328 9.9468C512.848 9.7168 513.463 9.6018 514.173 9.6018C515.223 9.6018 516.048 9.8618 516.648 10.3818C517.258 10.9018 517.608 11.5918 517.698 12.4518H515.328C515.288 12.1618 515.158 11.9318 514.938 11.7618C514.728 11.5918 514.448 11.5068 514.098 11.5068C513.798 11.5068 513.568 11.5668 513.408 11.6868C513.248 11.7968 513.168 11.9518 513.168 12.1518C513.168 12.3918 513.293 12.5718 513.543 12.6918C513.803 12.8118 514.203 12.9318 514.743 13.0518C515.363 13.2118 515.868 13.3718 516.258 13.5318C516.648 13.6818 516.988 13.9318 517.278 14.2818C517.578 14.6218 517.733 15.0818 517.743 15.6618C517.743 16.1518 517.603 16.5918 517.323 16.9818C517.053 17.3618 516.658 17.6618 516.138 17.8818C515.628 18.1018 515.033 18.2118 514.353 18.2118ZM521.712 15.9768H525.342V18.0918H518.847V16.0518L522.327 11.8368H518.877V9.7218H525.267V11.7618L521.712 15.9768ZM529.422 13.8918C529.422 13.0318 529.582 12.2768 529.902 11.6268C530.232 10.9768 530.677 10.4768 531.237 10.1268C531.797 9.7768 532.422 9.6018 533.112 9.6018C533.662 9.6018 534.162 9.7168 534.612 9.9468C535.072 10.1768 535.432 10.4868 535.692 10.8768V6.9918H538.257V18.0918H535.692V16.8918C535.452 17.2918 535.107 17.6118 534.657 17.8518C534.217 18.0918 533.702 18.2118 533.112 18.2118C532.422 18.2118 531.797 18.0368 531.237 17.6868C530.677 17.3268 530.232 16.8218 529.902 16.1718C529.582 15.5118 529.422 14.7518 529.422 13.8918ZM535.692 13.9068C535.692 13.2668 535.512 12.7618 535.152 12.3918C534.802 12.0218 534.372 11.8368 533.862 11.8368C533.352 11.8368 532.917 12.0218 532.557 12.3918C532.207 12.7518 532.032 13.2518 532.032 13.8918C532.032 14.5318 532.207 15.0418 532.557 15.4218C532.917 15.7918 533.352 15.9768 533.862 15.9768C534.372 15.9768 534.802 15.7918 535.152 15.4218C535.512 15.0518 535.692 14.5468 535.692 13.9068ZM543.923 18.2118C543.103 18.2118 542.363 18.0368 541.703 17.6868C541.053 17.3368 540.538 16.8368 540.158 16.1868C539.788 15.5368 539.603 14.7768 539.603 13.9068C539.603 13.0468 539.793 12.2918 540.173 11.6418C540.553 10.9818 541.073 10.4768 541.733 10.1268C542.393 9.7768 543.133 9.6018 543.953 9.6018C544.773 9.6018 545.513 9.7768 546.173 10.1268C546.833 10.4768 547.353 10.9818 547.733 11.6418C548.113 12.2918 548.303 13.0468 548.303 13.9068C548.303 14.7668 548.108 15.5268 547.718 16.1868C547.338 16.8368 546.813 17.3368 546.143 17.6868C545.483 18.0368 544.743 18.2118 543.923 18.2118ZM543.923 15.9918C544.413 15.9918 544.828 15.8118 545.168 15.4518C545.518 15.0918 545.693 14.5768 545.693 13.9068C545.693 13.2368 545.523 12.7218 545.183 12.3618C544.853 12.0018 544.443 11.8218 543.953 11.8218C543.453 11.8218 543.038 12.0018 542.708 12.3618C542.378 12.7118 542.213 13.2268 542.213 13.9068C542.213 14.5768 542.373 15.0918 542.693 15.4518C543.023 15.8118 543.433 15.9918 543.923 15.9918ZM557.942 9.6318C558.922 9.6318 559.702 9.9518 560.282 10.5918C560.872 11.2218 561.167 12.0918 561.167 13.2018V18.0918H558.617V13.5468C558.617 12.9868 558.472 12.5518 558.182 12.2418C557.892 11.9318 557.502 11.7768 557.012 11.7768C556.522 11.7768 556.132 11.9318 555.842 12.2418C555.552 12.5518 555.407 12.9868 555.407 13.5468V18.0918H552.842V9.7218H555.407V10.8318C555.667 10.4618 556.017 10.1718 556.457 9.9618C556.897 9.7418 557.392 9.6318 557.942 9.6318ZM562.44 13.8918C562.44 13.0318 562.6 12.2768 562.92 11.6268C563.25 10.9768 563.695 10.4768 564.255 10.1268C564.815 9.7768 565.44 9.6018 566.13 9.6018C566.72 9.6018 567.235 9.7218 567.675 9.9618C568.125 10.2018 568.47 10.5168 568.71 10.9068V9.7218H571.275V18.0918H568.71V16.9068C568.46 17.2968 568.11 17.6118 567.66 17.8518C567.22 18.0918 566.705 18.2118 566.115 18.2118C565.435 18.2118 564.815 18.0368 564.255 17.6868C563.695 17.3268 563.25 16.8218 562.92 16.1718C562.6 15.5118 562.44 14.7518 562.44 13.8918ZM568.71 13.9068C568.71 13.2668 568.53 12.7618 568.17 12.3918C567.82 12.0218 567.39 11.8368 566.88 11.8368C566.37 11.8368 565.935 12.0218 565.575 12.3918C565.225 12.7518 565.05 13.2518 565.05 13.8918C565.05 14.5318 565.225 15.0418 565.575 15.4218C565.935 15.7918 566.37 15.9768 566.88 15.9768C567.39 15.9768 567.82 15.7918 568.17 15.4218C568.53 15.0518 568.71 14.5468 568.71 13.9068ZM576.535 18.2118C575.805 18.2118 575.155 18.0868 574.585 17.8368C574.015 17.5868 573.565 17.2468 573.235 16.8168C572.905 16.3768 572.72 15.8868 572.68 15.3468H575.215C575.245 15.6368 575.38 15.8718 575.62 16.0518C575.86 16.2318 576.155 16.3218 576.505 16.3218C576.825 16.3218 577.07 16.2618 577.24 16.1418C577.42 16.0118 577.51 15.8468 577.51 15.6468C577.51 15.4068 577.385 15.2318 577.135 15.1218C576.885 15.0018 576.48 14.8718 575.92 14.7318C575.32 14.5918 574.82 14.4468 574.42 14.2968C574.02 14.1368 573.675 13.8918 573.385 13.5618C573.095 13.2218 572.95 12.7668 572.95 12.1968C572.95 11.7168 573.08 11.2818 573.34 10.8918C573.61 10.4918 574 10.1768 574.51 9.9468C575.03 9.7168 575.645 9.6018 576.355 9.6018C577.405 9.6018 578.23 9.8618 578.83 10.3818C579.44 10.9018 579.79 11.5918 579.88 12.4518H577.51C577.47 12.1618 577.34 11.9318 577.12 11.7618C576.91 11.5918 576.63 11.5068 576.28 11.5068C575.98 11.5068 575.75 11.5668 575.59 11.6868C575.43 11.7968 575.35 11.9518 575.35 12.1518C575.35 12.3918 575.475 12.5718 575.725 12.6918C575.985 12.8118 576.385 12.9318 576.925 13.0518C577.545 13.2118 578.05 13.3718 578.44 13.5318C578.83 13.6818 579.17 13.9318 579.46 14.2818C579.76 14.6218 579.915 15.0818 579.925 15.6618C579.925 16.1518 579.785 16.5918 579.505 16.9818C579.235 17.3618 578.84 17.6618 578.32 17.8818C577.81 18.1018 577.215 18.2118 576.535 18.2118ZM484.903 35.7518C485.863 35.7518 486.643 36.0568 487.243 36.6668C487.853 37.2668 488.158 38.1418 488.158 39.2918V44.0918H487.123V39.4118C487.123 38.5218 486.908 37.8418 486.478 37.3718C486.048 36.9018 485.463 36.6668 484.723 36.6668C483.953 36.6668 483.338 36.9218 482.878 37.4318C482.418 37.9418 482.188 38.6818 482.188 39.6518V44.0918H481.153V39.4118C481.153 38.5218 480.938 37.8418 480.508 37.3718C480.078 36.9018 479.488 36.6668 478.738 36.6668C477.968 36.6668 477.353 36.9218 476.893 37.4318C476.433 37.9418 476.203 38.6818 476.203 39.6518V44.0918H475.153V35.9018H476.203V37.3118C476.463 36.8018 476.833 36.4168 477.313 36.1568C477.793 35.8868 478.328 35.7518 478.918 35.7518C479.628 35.7518 480.248 35.9218 480.778 36.2618C481.318 36.6018 481.708 37.1018 481.948 37.7618C482.168 37.1118 482.543 36.6168 483.073 36.2768C483.613 35.9268 484.223 35.7518 484.903 35.7518ZM497.9 39.5768C497.9 39.9368 497.89 40.2118 497.87 40.4018H491.075C491.105 41.0218 491.255 41.5518 491.525 41.9918C491.795 42.4318 492.15 42.7668 492.59 42.9968C493.03 43.2168 493.51 43.3268 494.03 43.3268C494.71 43.3268 495.28 43.1618 495.74 42.8318C496.21 42.5018 496.52 42.0568 496.67 41.4968H497.78C497.58 42.2968 497.15 42.9518 496.49 43.4618C495.84 43.9618 495.02 44.2118 494.03 44.2118C493.26 44.2118 492.57 44.0418 491.96 43.7018C491.35 43.3518 490.87 42.8618 490.52 42.2318C490.18 41.5918 490.01 40.8468 490.01 39.9968C490.01 39.1468 490.18 38.4018 490.52 37.7618C490.86 37.1218 491.335 36.6318 491.945 36.2918C492.555 35.9518 493.25 35.7818 494.03 35.7818C494.81 35.7818 495.49 35.9518 496.07 36.2918C496.66 36.6318 497.11 37.0918 497.42 37.6718C497.74 38.2418 497.9 38.8768 497.9 39.5768ZM496.835 39.5468C496.845 38.9368 496.72 38.4168 496.46 37.9868C496.21 37.5568 495.865 37.2318 495.425 37.0118C494.985 36.7918 494.505 36.6818 493.985 36.6818C493.205 36.6818 492.54 36.9318 491.99 37.4318C491.44 37.9318 491.135 38.6368 491.075 39.5468H496.835ZM500.346 34.3568C500.136 34.3568 499.956 34.2818 499.806 34.1318C499.656 33.9818 499.581 33.7968 499.581 33.5768C499.581 33.3568 499.656 33.1768 499.806 33.0368C499.956 32.8868 500.136 32.8118 500.346 32.8118C500.556 32.8118 500.736 32.8868 500.886 33.0368C501.036 33.1768 501.111 33.3568 501.111 33.5768C501.111 33.7968 501.036 33.9818 500.886 34.1318C500.736 34.2818 500.556 34.3568 500.346 34.3568ZM500.871 35.9018V44.0918H499.821V35.9018H500.871ZM504.299 32.9918V44.0918H503.249V32.9918H504.299ZM507.727 32.9918V44.0918H506.677V32.9918H507.727ZM517.514 39.5768C517.514 39.9368 517.504 40.2118 517.484 40.4018H510.689C510.719 41.0218 510.869 41.5518 511.139 41.9918C511.409 42.4318 511.764 42.7668 512.204 42.9968C512.644 43.2168 513.124 43.3268 513.644 43.3268C514.324 43.3268 514.894 43.1618 515.354 42.8318C515.824 42.5018 516.134 42.0568 516.284 41.4968H517.394C517.194 42.2968 516.764 42.9518 516.104 43.4618C515.454 43.9618 514.634 44.2118 513.644 44.2118C512.874 44.2118 512.184 44.0418 511.574 43.7018C510.964 43.3518 510.484 42.8618 510.134 42.2318C509.794 41.5918 509.624 40.8468 509.624 39.9968C509.624 39.1468 509.794 38.4018 510.134 37.7618C510.474 37.1218 510.949 36.6318 511.559 36.2918C512.169 35.9518 512.864 35.7818 513.644 35.7818C514.424 35.7818 515.104 35.9518 515.684 36.2918C516.274 36.6318 516.724 37.0918 517.034 37.6718C517.354 38.2418 517.514 38.8768 517.514 39.5768ZM516.449 39.5468C516.459 38.9368 516.334 38.4168 516.074 37.9868C515.824 37.5568 515.479 37.2318 515.039 37.0118C514.599 36.7918 514.119 36.6818 513.599 36.6818C512.819 36.6818 512.154 36.9318 511.604 37.4318C511.054 37.9318 510.749 38.6368 510.689 39.5468H516.449ZM526.53 35.9018V44.0918H525.48V42.6518C525.24 43.1618 524.87 43.5518 524.37 43.8218C523.87 44.0918 523.31 44.2268 522.69 44.2268C521.71 44.2268 520.91 43.9268 520.29 43.3268C519.67 42.7168 519.36 41.8368 519.36 40.6868V35.9018H520.395V40.5668C520.395 41.4568 520.615 42.1368 521.055 42.6068C521.505 43.0768 522.115 43.3118 522.885 43.3118C523.675 43.3118 524.305 43.0618 524.775 42.5618C525.245 42.0618 525.48 41.3268 525.48 40.3568V35.9018H526.53ZM529.978 37.3568C530.208 36.8468 530.558 36.4518 531.028 36.1718C531.508 35.8918 532.093 35.7518 532.783 35.7518V36.8468H532.498C531.738 36.8468 531.128 37.0518 530.668 37.4618C530.208 37.8718 529.978 38.5568 529.978 39.5168V44.0918H528.928V35.9018H529.978V37.3568ZM541.667 34.5518C542.747 34.5518 543.697 34.7618 544.517 35.1818C545.337 35.6018 545.967 36.1918 546.407 36.9518C546.847 37.7018 547.067 38.5668 547.067 39.5468C547.067 40.3268 546.942 41.0718 546.692 41.7818C546.442 42.4918 546.082 43.0718 545.612 43.5218C545.142 43.9618 544.592 44.1818 543.962 44.1818C543.472 44.1818 543.097 44.0518 542.837 43.7918C542.587 43.5218 542.452 43.1568 542.432 42.6968C542.122 43.1568 541.727 43.5218 541.247 43.7918C540.767 44.0518 540.257 44.1818 539.717 44.1818C538.957 44.1818 538.362 43.9518 537.932 43.4918C537.512 43.0318 537.302 42.4068 537.302 41.6168C537.302 40.8768 537.457 40.1868 537.767 39.5468C538.077 38.8968 538.507 38.3768 539.057 37.9868C539.607 37.5968 540.232 37.4018 540.932 37.4018C541.432 37.4018 541.852 37.5118 542.192 37.7318C542.542 37.9518 542.792 38.2718 542.942 38.6918L543.137 37.5818H544.052L543.287 41.9468C543.257 42.1268 543.242 42.2918 543.242 42.4418C543.242 43.1118 543.532 43.4468 544.112 43.4468C544.542 43.4468 544.912 43.2518 545.222 42.8618C545.542 42.4718 545.782 41.9818 545.942 41.3918C546.112 40.7918 546.197 40.1968 546.197 39.6068C546.197 38.7268 546.007 37.9668 545.627 37.3268C545.257 36.6768 544.722 36.1818 544.022 35.8418C543.322 35.4918 542.492 35.3168 541.532 35.3168C540.332 35.3168 539.247 35.6118 538.277 36.2018C537.307 36.7918 536.547 37.5918 535.997 38.6018C535.447 39.6118 535.172 40.7268 535.172 41.9468C535.162 43.3068 535.572 44.3618 536.402 45.1118C537.232 45.8718 538.367 46.2518 539.807 46.2518C540.717 46.2518 541.542 46.0818 542.282 45.7418L542.447 46.4768C541.567 46.8368 540.612 47.0168 539.582 47.0168C538.532 47.0168 537.607 46.8118 536.807 46.4018C536.007 46.0018 535.387 45.4268 534.947 44.6768C534.507 43.9268 534.287 43.0518 534.287 42.0518C534.287 40.6618 534.602 39.3968 535.232 38.2568C535.872 37.1068 536.752 36.2018 537.872 35.5418C539.002 34.8818 540.267 34.5518 541.667 34.5518ZM540.017 43.3568C540.467 43.3568 540.882 43.2368 541.262 42.9968C541.642 42.7568 541.952 42.4218 542.192 41.9918C542.442 41.5618 542.597 41.0718 542.657 40.5218C542.677 40.3418 542.687 40.2118 542.687 40.1318C542.687 39.5718 542.532 39.1168 542.222 38.7668C541.922 38.4068 541.492 38.2268 540.932 38.2268C540.402 38.2268 539.937 38.3818 539.537 38.6918C539.137 39.0018 538.827 39.4068 538.607 39.9068C538.387 40.3968 538.277 40.9168 538.277 41.4668C538.277 42.0468 538.427 42.5068 538.727 42.8468C539.027 43.1868 539.457 43.3568 540.017 43.3568ZM548.911 39.9968C548.911 39.1468 549.081 38.4068 549.421 37.7768C549.761 37.1368 550.231 36.6468 550.831 36.3068C551.431 35.9568 552.116 35.7818 552.886 35.7818C553.896 35.7818 554.726 36.0318 555.376 36.5318C556.036 37.0318 556.461 37.7118 556.651 38.5718H555.526C555.386 37.9818 555.081 37.5218 554.611 37.1918C554.151 36.8518 553.576 36.6818 552.886 36.6818C552.336 36.6818 551.841 36.8068 551.401 37.0568C550.961 37.3068 550.611 37.6818 550.351 38.1818C550.101 38.6718 549.976 39.2768 549.976 39.9968C549.976 40.7168 550.101 41.3268 550.351 41.8268C550.611 42.3268 550.961 42.7018 551.401 42.9518C551.841 43.2018 552.336 43.3268 552.886 43.3268C553.576 43.3268 554.151 43.1618 554.611 42.8318C555.081 42.4918 555.386 42.0218 555.526 41.4218H556.651C556.461 42.2618 556.036 42.9368 555.376 43.4468C554.716 43.9568 553.886 44.2118 552.886 44.2118C552.116 44.2118 551.431 44.0418 550.831 43.7018C550.231 43.3518 549.761 42.8618 549.421 42.2318C549.081 41.5918 548.911 40.8468 548.911 39.9968ZM562.176 44.2118C561.406 44.2118 560.711 44.0418 560.091 43.7018C559.481 43.3518 558.996 42.8618 558.636 42.2318C558.286 41.5918 558.111 40.8468 558.111 39.9968C558.111 39.1468 558.291 38.4068 558.651 37.7768C559.011 37.1368 559.501 36.6468 560.121 36.3068C560.741 35.9568 561.436 35.7818 562.206 35.7818C562.976 35.7818 563.671 35.9568 564.291 36.3068C564.921 36.6468 565.411 37.1368 565.761 37.7768C566.121 38.4068 566.301 39.1468 566.301 39.9968C566.301 40.8368 566.121 41.5768 565.761 42.2168C565.401 42.8568 564.906 43.3518 564.276 43.7018C563.646 44.0418 562.946 44.2118 562.176 44.2118ZM562.176 43.2968C562.716 43.2968 563.216 43.1768 563.676 42.9368C564.136 42.6868 564.506 42.3168 564.786 41.8268C565.076 41.3268 565.221 40.7168 565.221 39.9968C565.221 39.2768 565.081 38.6718 564.801 38.1818C564.521 37.6818 564.151 37.3118 563.691 37.0718C563.231 36.8218 562.731 36.6968 562.191 36.6968C561.651 36.6968 561.151 36.8218 560.691 37.0718C560.231 37.3118 559.861 37.6818 559.581 38.1818C559.311 38.6718 559.176 39.2768 559.176 39.9968C559.176 40.7168 559.311 41.3268 559.581 41.8268C559.861 42.3168 560.226 42.6868 560.676 42.9368C561.136 43.1768 561.636 43.2968 562.176 43.2968ZM575.31 35.9018V44.0918H574.26V42.6518C574.02 43.1618 573.65 43.5518 573.15 43.8218C572.65 44.0918 572.09 44.2268 571.47 44.2268C570.49 44.2268 569.69 43.9268 569.07 43.3268C568.45 42.7168 568.14 41.8368 568.14 40.6868V35.9018H569.175V40.5668C569.175 41.4568 569.395 42.1368 569.835 42.6068C570.285 43.0768 570.895 43.3118 571.665 43.3118C572.455 43.3118 573.085 43.0618 573.555 42.5618C574.025 42.0618 574.26 41.3268 574.26 40.3568V35.9018H575.31ZM579.072 36.7868V41.8718C579.072 42.3718 579.167 42.7168 579.357 42.9068C579.547 43.0968 579.882 43.1918 580.362 43.1918H581.322V44.0918H580.197C579.457 44.0918 578.907 43.9218 578.547 43.5818C578.187 43.2318 578.007 42.6618 578.007 41.8718V36.7868H576.867V35.9018H578.007V33.8468H579.072V35.9018H581.322V36.7868H579.072ZM590.464 39.5768C590.464 39.9368 590.454 40.2118 590.434 40.4018H583.639C583.669 41.0218 583.819 41.5518 584.089 41.9918C584.359 42.4318 584.714 42.7668 585.154 42.9968C585.594 43.2168 586.074 43.3268 586.594 43.3268C587.274 43.3268 587.844 43.1618 588.304 42.8318C588.774 42.5018 589.084 42.0568 589.234 41.4968H590.344C590.144 42.2968 589.714 42.9518 589.054 43.4618C588.404 43.9618 587.584 44.2118 586.594 44.2118C585.824 44.2118 585.134 44.0418 584.524 43.7018C583.914 43.3518 583.434 42.8618 583.084 42.2318C582.744 41.5918 582.574 40.8468 582.574 39.9968C582.574 39.1468 582.744 38.4018 583.084 37.7618C583.424 37.1218 583.899 36.6318 584.509 36.2918C585.119 35.9518 585.814 35.7818 586.594 35.7818C587.374 35.7818 588.054 35.9518 588.634 36.2918C589.224 36.6318 589.674 37.0918 589.984 37.6718C590.304 38.2418 590.464 38.8768 590.464 39.5768ZM589.399 39.5468C589.409 38.9368 589.284 38.4168 589.024 37.9868C588.774 37.5568 588.429 37.2318 587.989 37.0118C587.549 36.7918 587.069 36.6818 586.549 36.6818C585.769 36.6818 585.104 36.9318 584.554 37.4318C584.004 37.9318 583.699 38.6368 583.639 39.5468H589.399ZM591.905 39.9818C591.905 39.1418 592.07 38.4068 592.4 37.7768C592.74 37.1368 593.205 36.6468 593.795 36.3068C594.395 35.9568 595.07 35.7818 595.82 35.7818C596.6 35.7818 597.27 35.9618 597.83 36.3218C598.4 36.6818 598.81 37.1418 599.06 37.7018V35.9018H600.11V44.0918H599.06V42.2768C598.8 42.8368 598.385 43.3018 597.815 43.6718C597.255 44.0318 596.585 44.2118 595.805 44.2118C595.065 44.2118 594.395 44.0368 593.795 43.6868C593.205 43.3368 592.74 42.8418 592.4 42.2018C592.07 41.5618 591.905 40.8218 591.905 39.9818ZM599.06 39.9968C599.06 39.3368 598.925 38.7568 598.655 38.2568C598.385 37.7568 598.015 37.3718 597.545 37.1018C597.085 36.8318 596.575 36.6968 596.015 36.6968C595.435 36.6968 594.915 36.8268 594.455 37.0868C593.995 37.3468 593.63 37.7268 593.36 38.2268C593.1 38.7168 592.97 39.3018 592.97 39.9818C592.97 40.6518 593.1 41.2418 593.36 41.7518C593.63 42.2518 593.995 42.6368 594.455 42.9068C594.915 43.1668 595.435 43.2968 596.015 43.2968C596.575 43.2968 597.085 43.1618 597.545 42.8918C598.015 42.6218 598.385 42.2368 598.655 41.7368C598.925 41.2368 599.06 40.6568 599.06 39.9968ZM609.602 35.9018V44.0918H608.552V42.6518C608.312 43.1618 607.942 43.5518 607.442 43.8218C606.942 44.0918 606.382 44.2268 605.762 44.2268C604.782 44.2268 603.982 43.9268 603.362 43.3268C602.742 42.7168 602.432 41.8368 602.432 40.6868V35.9018H603.467V40.5668C603.467 41.4568 603.687 42.1368 604.127 42.6068C604.577 43.0768 605.187 43.3118 605.957 43.3118C606.747 43.3118 607.377 43.0618 607.847 42.5618C608.317 42.0618 608.552 41.3268 608.552 40.3568V35.9018H609.602ZM612.179 44.1668C611.959 44.1668 611.774 44.0918 611.624 43.9418C611.484 43.7918 611.414 43.6068 611.414 43.3868C611.414 43.1668 611.484 42.9868 611.624 42.8468C611.774 42.6968 611.959 42.6218 612.179 42.6218C612.389 42.6218 612.564 42.6968 612.704 42.8468C612.854 42.9868 612.929 43.1668 612.929 43.3868C612.929 43.6068 612.854 43.7918 612.704 43.9418C612.564 44.0918 612.389 44.1668 612.179 44.1668ZM615.248 34.3568C615.038 34.3568 614.858 34.2818 614.708 34.1318C614.558 33.9818 614.483 33.7968 614.483 33.5768C614.483 33.3568 614.558 33.1768 614.708 33.0368C614.858 32.8868 615.038 32.8118 615.248 32.8118C615.458 32.8118 615.638 32.8868 615.788 33.0368C615.938 33.1768 616.013 33.3568 616.013 33.5768C616.013 33.7968 615.938 33.9818 615.788 34.1318C615.638 34.2818 615.458 34.3568 615.248 34.3568ZM615.773 35.9018V44.0918H614.723V35.9018H615.773ZM621.991 35.7518C622.971 35.7518 623.771 36.0568 624.391 36.6668C625.011 37.2668 625.321 38.1418 625.321 39.2918V44.0918H624.286V39.4118C624.286 38.5218 624.061 37.8418 623.611 37.3718C623.171 36.9018 622.566 36.6668 621.796 36.6668C621.006 36.6668 620.376 36.9168 619.906 37.4168C619.436 37.9168 619.201 38.6518 619.201 39.6218V44.0918H618.151V35.9018H619.201V37.2968C619.461 36.7968 619.836 36.4168 620.326 36.1568C620.816 35.8868 621.371 35.7518 621.991 35.7518ZM630.868 36.7868H628.963V44.0918H627.913V36.7868H626.773V35.9018H627.913V35.3318C627.913 34.4418 628.138 33.7868 628.588 33.3668C629.048 32.9468 629.788 32.7368 630.808 32.7368V33.6368C630.128 33.6368 629.648 33.7668 629.368 34.0268C629.098 34.2868 628.963 34.7218 628.963 35.3318V35.9018H630.868V36.7868ZM636.106 44.2118C635.336 44.2118 634.641 44.0418 634.021 43.7018C633.411 43.3518 632.926 42.8618 632.566 42.2318C632.216 41.5918 632.041 40.8468 632.041 39.9968C632.041 39.1468 632.221 38.4068 632.581 37.7768C632.941 37.1368 633.431 36.6468 634.051 36.3068C634.671 35.9568 635.366 35.7818 636.136 35.7818C636.906 35.7818 637.601 35.9568 638.221 36.3068C638.851 36.6468 639.341 37.1368 639.691 37.7768C640.051 38.4068 640.231 39.1468 640.231 39.9968C640.231 40.8368 640.051 41.5768 639.691 42.2168C639.331 42.8568 638.836 43.3518 638.206 43.7018C637.576 44.0418 636.876 44.2118 636.106 44.2118ZM636.106 43.2968C636.646 43.2968 637.146 43.1768 637.606 42.9368C638.066 42.6868 638.436 42.3168 638.716 41.8268C639.006 41.3268 639.151 40.7168 639.151 39.9968C639.151 39.2768 639.011 38.6718 638.731 38.1818C638.451 37.6818 638.081 37.3118 637.621 37.0718C637.161 36.8218 636.661 36.6968 636.121 36.6968C635.581 36.6968 635.081 36.8218 634.621 37.0718C634.161 37.3118 633.791 37.6818 633.511 38.1818C633.241 38.6718 633.106 39.2768 633.106 39.9968C633.106 40.7168 633.241 41.3268 633.511 41.8268C633.791 42.3168 634.156 42.6868 634.606 42.9368C635.066 43.1768 635.566 43.2968 636.106 43.2968Z" fill="black"/>
<rect x="412.844" y="5.78711" width="40.6094" height="40.6094" rx="6.5" fill="#E31019" stroke="black"/>
<path d="M440.648 18.4214H425.648C424.617 18.4214 423.783 19.2843 423.783 20.339L423.773 31.8447C423.773 32.8994 424.617 33.7623 425.648 33.7623H440.648C441.68 33.7623 442.523 32.8994 442.523 31.8447V20.339C442.523 19.2843 441.68 18.4214 440.648 18.4214ZM440.648 22.2566L433.148 27.0506L425.648 22.2566V20.339L433.148 25.133L440.648 20.339V22.2566Z" fill="white"/>
</svg>
