<svg width="650" height="24" viewBox="0 0 650 24" fill="none" xmlns="http://www.w3.org/2000/svg">
<path d="M87.1255 15.9C86.5955 14.95 86.3305 13.62 86.3305 11.91C86.3305 10.21 86.5955 8.89 87.1255 7.95C87.6655 7.01 88.6155 6.54 89.9755 6.54C91.3255 6.54 92.2705 7.01 92.8105 7.95C93.3505 8.89 93.6205 10.21 93.6205 11.91C93.6205 13.62 93.3505 14.95 92.8105 15.9C92.2705 16.84 91.3255 17.31 89.9755 17.31C88.6155 17.31 87.6655 16.84 87.1255 15.9ZM92.3605 14.265C92.5005 13.625 92.5705 12.84 92.5705 11.91C92.5705 10.99 92.5005 10.215 92.3605 9.585C92.2305 8.955 91.9755 8.455 91.5955 8.085C91.2155 7.715 90.6755 7.53 89.9755 7.53C89.2655 7.53 88.7205 7.715 88.3405 8.085C87.9605 8.455 87.7005 8.955 87.5605 9.585C87.4305 10.215 87.3655 10.99 87.3655 11.91C87.3655 12.84 87.4305 13.625 87.5605 14.265C87.7005 14.895 87.9605 15.395 88.3405 15.765C88.7205 16.135 89.2655 16.32 89.9755 16.32C90.6755 16.32 91.2155 16.135 91.5955 15.765C91.9755 15.395 92.2305 14.895 92.3605 14.265ZM94.7369 7.65V6.675H97.4219V17.25H96.3269V7.65H94.7369ZM139.23 15.9C138.7 14.95 138.435 13.62 138.435 11.91C138.435 10.21 138.7 8.89 139.23 7.95C139.77 7.01 140.72 6.54 142.08 6.54C143.43 6.54 144.375 7.01 144.915 7.95C145.455 8.89 145.725 10.21 145.725 11.91C145.725 13.62 145.455 14.95 144.915 15.9C144.375 16.84 143.43 17.31 142.08 17.31C140.72 17.31 139.77 16.84 139.23 15.9ZM144.465 14.265C144.605 13.625 144.675 12.84 144.675 11.91C144.675 10.99 144.605 10.215 144.465 9.585C144.335 8.955 144.08 8.455 143.7 8.085C143.32 7.715 142.78 7.53 142.08 7.53C141.37 7.53 140.825 7.715 140.445 8.085C140.065 8.455 139.805 8.955 139.665 9.585C139.535 10.215 139.47 10.99 139.47 11.91C139.47 12.84 139.535 13.625 139.665 14.265C139.805 14.895 140.065 15.395 140.445 15.765C140.825 16.135 141.37 16.32 142.08 16.32C142.78 16.32 143.32 16.135 143.7 15.765C144.08 15.395 144.335 14.895 144.465 14.265ZM147.306 16.455C149.076 15.285 150.486 14.11 151.536 12.93C152.596 11.75 153.126 10.645 153.126 9.615C153.126 8.965 152.956 8.44 152.616 8.04C152.276 7.63 151.726 7.425 150.966 7.425C150.186 7.425 149.591 7.67 149.181 8.16C148.781 8.64 148.556 9.295 148.506 10.125H147.471C147.541 8.975 147.896 8.09 148.536 7.47C149.176 6.84 150.011 6.525 151.041 6.525C151.981 6.525 152.741 6.78 153.321 7.29C153.901 7.8 154.191 8.545 154.191 9.525C154.191 10.355 153.916 11.205 153.366 12.075C152.816 12.935 152.131 13.735 151.311 14.475C150.491 15.205 149.656 15.825 148.806 16.335H154.491V17.205H147.306V16.455ZM253.239 15.9C252.709 14.95 252.444 13.62 252.444 11.91C252.444 10.21 252.709 8.89 253.239 7.95C253.779 7.01 254.729 6.54 256.089 6.54C257.439 6.54 258.384 7.01 258.924 7.95C259.464 8.89 259.734 10.21 259.734 11.91C259.734 13.62 259.464 14.95 258.924 15.9C258.384 16.84 257.439 17.31 256.089 17.31C254.729 17.31 253.779 16.84 253.239 15.9ZM258.474 14.265C258.614 13.625 258.684 12.84 258.684 11.91C258.684 10.99 258.614 10.215 258.474 9.585C258.344 8.955 258.089 8.455 257.709 8.085C257.329 7.715 256.789 7.53 256.089 7.53C255.379 7.53 254.834 7.715 254.454 8.085C254.074 8.455 253.814 8.955 253.674 9.585C253.544 10.215 253.479 10.99 253.479 11.91C253.479 12.84 253.544 13.625 253.674 14.265C253.814 14.895 254.074 15.395 254.454 15.765C254.834 16.135 255.379 16.32 256.089 16.32C256.789 16.32 257.329 16.135 257.709 15.765C258.089 15.395 258.344 14.895 258.474 14.265ZM261.06 14.7V13.83L266.64 6.63H267.765V13.77H269.415V14.7H267.765V17.25H266.7V14.7H261.06ZM266.775 7.935L262.185 13.77H266.775V7.935ZM306.53 15.9C306 14.95 305.735 13.62 305.735 11.91C305.735 10.21 306 8.89 306.53 7.95C307.07 7.01 308.02 6.54 309.38 6.54C310.73 6.54 311.675 7.01 312.215 7.95C312.755 8.89 313.025 10.21 313.025 11.91C313.025 13.62 312.755 14.95 312.215 15.9C311.675 16.84 310.73 17.31 309.38 17.31C308.02 17.31 307.07 16.84 306.53 15.9ZM311.765 14.265C311.905 13.625 311.975 12.84 311.975 11.91C311.975 10.99 311.905 10.215 311.765 9.585C311.635 8.955 311.38 8.455 311 8.085C310.62 7.715 310.08 7.53 309.38 7.53C308.67 7.53 308.125 7.715 307.745 8.085C307.365 8.455 307.105 8.955 306.965 9.585C306.835 10.215 306.77 10.99 306.77 11.91C306.77 12.84 306.835 13.625 306.965 14.265C307.105 14.895 307.365 15.395 307.745 15.765C308.125 16.135 308.67 16.32 309.38 16.32C310.08 16.32 310.62 16.135 311 15.765C311.38 15.395 311.635 14.895 311.765 14.265ZM321.776 7.515H316.166V11.43C316.436 11.07 316.821 10.78 317.321 10.56C317.821 10.34 318.361 10.23 318.941 10.23C320.071 10.23 320.911 10.555 321.461 11.205C322.021 11.855 322.301 12.67 322.301 13.65C322.301 14.72 322.001 15.6 321.401 16.29C320.801 16.98 319.911 17.325 318.731 17.325C317.701 17.325 316.856 17.045 316.196 16.485C315.546 15.925 315.171 15.165 315.071 14.205H316.106C316.236 14.905 316.526 15.445 316.976 15.825C317.426 16.205 317.991 16.395 318.671 16.395C319.531 16.395 320.176 16.145 320.606 15.645C321.046 15.135 321.266 14.465 321.266 13.635C321.266 12.835 321.046 12.21 320.606 11.76C320.166 11.31 319.536 11.085 318.716 11.085C318.146 11.085 317.641 11.205 317.201 11.445C316.771 11.685 316.441 12.015 316.211 12.435H315.191V6.585H321.776V7.515ZM363.882 15.9V17.25H362.487V15.9H363.882ZM366.196 15.9V17.25H364.801V15.9H366.196ZM368.511 15.9V17.25H367.116V15.9H368.511ZM404.258 7.65V6.675H406.943V17.25H405.848V7.65H404.258ZM409.787 15.9C409.257 14.95 408.992 13.62 408.992 11.91C408.992 10.21 409.257 8.89 409.787 7.95C410.327 7.01 411.277 6.54 412.637 6.54C413.987 6.54 414.932 7.01 415.472 7.95C416.012 8.89 416.282 10.21 416.282 11.91C416.282 13.62 416.012 14.95 415.472 15.9C414.932 16.84 413.987 17.31 412.637 17.31C411.277 17.31 410.327 16.84 409.787 15.9ZM415.022 14.265C415.162 13.625 415.232 12.84 415.232 11.91C415.232 10.99 415.162 10.215 415.022 9.585C414.892 8.955 414.637 8.455 414.257 8.085C413.877 7.715 413.337 7.53 412.637 7.53C411.927 7.53 411.382 7.715 411.002 8.085C410.622 8.455 410.362 8.955 410.222 9.585C410.092 10.215 410.027 10.99 410.027 11.91C410.027 12.84 410.092 13.625 410.222 14.265C410.362 14.895 410.622 15.395 411.002 15.765C411.382 16.135 411.927 16.32 412.637 16.32C413.337 16.32 413.877 16.135 414.257 15.765C414.637 15.395 414.892 14.895 415.022 14.265ZM456.363 7.65V6.675H459.048V17.25H457.953V7.65H456.363ZM460.391 7.65V6.675H463.076V17.25H461.981V7.65H460.391ZM503.384 7.65V6.675H506.069V17.25H504.974V7.65H503.384ZM507.878 16.455C509.648 15.285 511.058 14.11 512.108 12.93C513.168 11.75 513.698 10.645 513.698 9.615C513.698 8.965 513.528 8.44 513.188 8.04C512.848 7.63 512.298 7.425 511.538 7.425C510.758 7.425 510.163 7.67 509.753 8.16C509.353 8.64 509.128 9.295 509.078 10.125H508.043C508.113 8.975 508.468 8.09 509.108 7.47C509.748 6.84 510.583 6.525 511.613 6.525C512.553 6.525 513.313 6.78 513.893 7.29C514.473 7.8 514.763 8.545 514.763 9.525C514.763 10.355 514.488 11.205 513.938 12.075C513.388 12.935 512.703 13.735 511.883 14.475C511.063 15.205 510.228 15.825 509.378 16.335H515.063V17.205H507.878V16.455ZM550.992 7.65V6.675H553.677V17.25H552.582V7.65H550.992ZM559.295 6.45C559.965 6.45 560.535 6.57 561.005 6.81C561.475 7.04 561.83 7.36 562.07 7.77C562.32 8.18 562.445 8.645 562.445 9.165C562.445 9.825 562.25 10.385 561.86 10.845C561.47 11.305 560.875 11.575 560.075 11.655V11.745C560.875 11.945 561.5 12.26 561.95 12.69C562.41 13.11 562.64 13.695 562.64 14.445C562.64 15.305 562.355 16.005 561.785 16.545C561.225 17.085 560.405 17.355 559.325 17.355C558.255 17.355 557.39 17.08 556.73 16.53C556.07 15.97 555.675 15.16 555.545 14.1H556.58C556.69 14.81 556.975 15.38 557.435 15.81C557.905 16.23 558.525 16.44 559.295 16.44C560.045 16.44 560.615 16.25 561.005 15.87C561.405 15.49 561.605 14.995 561.605 14.385C561.605 13.665 561.32 13.12 560.75 12.75C560.19 12.37 559.395 12.18 558.365 12.18H558.035V11.295H558.365C560.395 11.295 561.41 10.62 561.41 9.27C561.41 8.68 561.22 8.21 560.84 7.86C560.46 7.51 559.935 7.335 559.265 7.335C558.605 7.335 558.045 7.52 557.585 7.89C557.125 8.26 556.85 8.815 556.76 9.555H555.725C555.805 8.575 556.155 7.815 556.775 7.275C557.395 6.725 558.235 6.45 559.295 6.45Z" fill="black"/>
<path d="M198.862 17.25C196.162 17.25 194.812 15.455 194.812 11.865C194.812 8.285 196.162 6.495 198.862 6.495C200.292 6.495 201.322 6.975 201.952 7.935C202.582 8.895 202.897 10.205 202.897 11.865C202.897 13.535 202.582 14.85 201.952 15.81C201.322 16.77 200.292 17.25 198.862 17.25ZM200.407 14.385C200.677 13.795 200.812 12.955 200.812 11.865C200.812 10.785 200.677 9.955 200.407 9.375C200.147 8.785 199.632 8.49 198.862 8.49C198.082 8.49 197.557 8.785 197.287 9.375C197.027 9.955 196.897 10.785 196.897 11.865C196.897 12.955 197.027 13.795 197.287 14.385C197.557 14.965 198.082 15.255 198.862 15.255C199.632 15.255 200.147 14.965 200.407 14.385ZM208.099 6.255C208.819 6.255 209.434 6.38 209.944 6.63C210.464 6.88 210.854 7.225 211.114 7.665C211.384 8.105 211.519 8.595 211.519 9.135C211.519 9.815 211.334 10.375 210.964 10.815C210.594 11.245 210.104 11.51 209.494 11.61V11.685C210.974 12.125 211.714 12.995 211.714 14.295C211.714 15.205 211.409 15.945 210.799 16.515C210.189 17.075 209.329 17.355 208.219 17.355C207.039 17.355 206.099 17.065 205.399 16.485C204.699 15.895 204.309 15.01 204.229 13.83H206.299C206.349 14.37 206.524 14.8 206.824 15.12C207.134 15.43 207.569 15.585 208.129 15.585C208.609 15.585 208.984 15.455 209.254 15.195C209.524 14.925 209.659 14.575 209.659 14.145C209.659 13.635 209.464 13.245 209.074 12.975C208.684 12.705 208.109 12.57 207.349 12.57H206.914V10.845H207.349C208.749 10.865 209.449 10.38 209.449 9.39C209.449 8.96 209.324 8.625 209.074 8.385C208.824 8.135 208.484 8.01 208.054 8.01C207.604 8.01 207.234 8.155 206.944 8.445C206.654 8.725 206.489 9.12 206.449 9.63H204.379C204.439 8.55 204.789 7.72 205.429 7.14C206.069 6.55 206.959 6.255 208.099 6.255Z" fill="#E31019"/>
<path d="M649.499 11.7313C649.498 11.7051 649.495 11.6842 649.493 11.6703L649.492 11.6609L649.491 11.6529L649.49 11.6452C649.469 11.5347 649.416 11.4336 649.337 11.3555L641.017 2.91127C640.912 2.80403 640.77 2.74973 640.632 2.75C640.495 2.74973 640.354 2.80403 640.248 2.91101C640.143 3.01825 640.089 3.16081 640.089 3.30095C640.089 3.44109 640.142 3.58338 640.248 3.69036L647.646 11.1991H626.041C625.743 11.2009 625.501 11.4451 625.5 11.7473C625.5 12.052 625.741 12.3004 626.041 12.3012H647.649L640.248 19.8091C640.143 19.9164 640.089 20.0589 640.09 20.1988C640.089 20.3389 640.143 20.4815 640.248 20.5885L640.249 20.5895C640.355 20.6957 640.495 20.7503 640.633 20.75C640.771 20.75 640.911 20.696 641.016 20.5895L641.017 20.5887L649.346 12.1378C649.444 12.0362 649.499 11.8995 649.5 11.757L649.5 11.7548V11.7527V11.7495V11.7409L649.499 11.7313Z" fill="black"/>
<path d="M0.500527 11.7687C0.501582 11.7949 0.504744 11.8158 0.506589 11.8297L0.507909 11.8391L0.508694 11.8471L0.510281 11.8548C0.530835 11.9653 0.584328 12.0664 0.663384 12.1445L8.98317 20.5887C9.08831 20.696 9.22956 20.7503 9.36765 20.75C9.50547 20.7503 9.64618 20.696 9.75159 20.589C9.85673 20.4817 9.91101 20.3392 9.91075 20.199C9.91101 20.0589 9.85752 19.9166 9.75211 19.8096L2.35359 12.3009L23.9593 12.3009C24.257 12.2991 24.4987 12.0549 24.5 11.7527C24.5 11.448 24.2589 11.1996 23.9593 11.1988L2.35095 11.1988L9.75185 3.69089C9.85699 3.58364 9.91075 3.44109 9.91049 3.30121C9.91075 3.16107 9.85725 3.01852 9.75185 2.91154L9.7508 2.91047C9.64539 2.80429 9.5052 2.74973 9.36738 2.75C9.2293 2.75 9.0891 2.80402 8.9837 2.91047L8.9829 2.91127L0.654424 11.3622C0.556395 11.4638 0.500787 11.6005 0.50026 11.743L0.500001 11.7452L0.500001 11.7473L0.500001 11.7505L0.500001 11.7591L0.500527 11.7687Z" fill="black"/>
</svg>
